<svg width="209" height="138" viewBox="0 0 209 138" fill="none" xmlns="http://www.w3.org/2000/svg">
<path fill-rule="evenodd" clip-rule="evenodd" d="M10 21.5128H73.9249C77.7909 21.5128 80.9249 24.6468 80.9249 28.5128V124.527C80.9249 128.393 77.7909 131.527 73.9249 131.527H10C6.13402 131.527 3 128.393 3 124.527V28.5128C3 24.6468 6.134 21.5128 10 21.5128ZM0 28.5128C0 22.99 4.47715 18.5128 10 18.5128H73.9249C78.2291 18.5128 81.8982 21.2322 83.3078 25.0465C84.7175 21.2322 88.3865 18.5129 92.6907 18.5129H156.616C162.139 18.5129 166.616 22.99 166.616 28.5129V124.527C166.616 130.05 162.139 134.527 156.616 134.527H92.6908C88.3865 134.527 84.7175 131.807 83.3078 127.993C81.8982 131.807 78.2291 134.527 73.9249 134.527H10C4.47717 134.527 0 130.05 0 124.527V28.5128ZM92.6907 21.5129H156.616C160.482 21.5129 163.616 24.6469 163.616 28.5129V124.527C163.616 128.393 160.482 131.527 156.616 131.527H92.6908C88.8248 131.527 85.6907 128.393 85.6907 124.527V28.5128C85.6907 24.6469 88.8247 21.5129 92.6907 21.5129Z" fill="#F1C195"/>
<rect x="12.6077" y="32.3547" width="58.7095" height="38.9625" rx="3.5" stroke="#F1C195" stroke-width="3"/>
<path fill-rule="evenodd" clip-rule="evenodd" d="M199.569 131.628L199.363 131.68C198.275 131.957 197.172 131.284 196.921 130.19L183.733 72.7591C183.657 72.4293 183.859 72.0993 184.187 72.016C184.514 71.9328 184.848 72.1252 184.94 72.4499L201.001 129.144C201.308 130.228 200.66 131.35 199.569 131.628ZM203.887 128.327C204.654 131.035 203.036 133.842 200.308 134.535L200.102 134.588C197.382 135.279 194.625 133.597 193.997 130.861L180.809 73.4305C180.692 72.9207 180.689 72.4109 180.783 71.928C176.56 70.8369 172.375 65.6055 170.602 58.628C168.4 49.969 170.745 41.8997 175.838 40.6048C180.932 39.3098 186.846 45.2796 189.047 53.9387C190.738 60.5889 189.747 66.8912 186.889 70.0441C187.32 70.4697 187.649 71.0091 187.826 71.6322L203.887 128.327ZM173.509 57.8889C172.517 53.9857 172.591 50.3558 173.365 47.6919C174.162 44.9508 175.482 43.7908 176.577 43.5123C177.673 43.2338 179.387 43.6224 181.396 45.6503C183.348 47.621 185.147 50.7747 186.139 54.6779C187.132 58.581 187.057 62.211 186.283 64.8748C185.487 67.616 184.167 68.7759 183.071 69.0545C181.975 69.333 180.261 68.9444 178.253 66.9165C176.3 64.9457 174.501 61.792 173.509 57.8889Z" fill="#F1C195"/>
<path d="M12.8687 89.0476C12.1382 88.657 11.8626 87.7481 12.2532 87.0176C12.6438 86.287 13.5527 86.0114 14.2833 86.4021L12.8687 89.0476ZM44.3485 87.7248L43.738 86.3547L44.3485 87.7248ZM68.7909 91.3722C69.4492 91.8751 69.5753 92.8164 69.0724 93.4747C68.5695 94.1331 67.6282 94.2591 66.9698 93.7562L68.7909 91.3722ZM14.2833 86.4021C22.8577 90.9867 33.2244 91.0393 43.738 86.3547L44.959 89.095C33.7508 94.0891 22.3958 94.1417 12.8687 89.0476L14.2833 86.4021ZM43.738 86.3547C48.5374 84.2162 53.7694 84.7008 58.2229 86.047C62.6851 87.396 66.5549 89.6642 68.7909 91.3722L66.9698 93.7562C64.9822 92.238 61.4303 90.1507 57.3548 88.9187C53.2703 87.684 48.8482 87.362 44.959 89.095L43.738 86.3547Z" fill="#F1C195"/>
<path d="M12.8687 101.39C12.1382 100.999 11.8626 100.09 12.2532 99.3595C12.6438 98.6289 13.5527 98.3534 14.2833 98.744L12.8687 101.39ZM44.3485 100.067L43.738 98.6966L44.3485 100.067ZM68.7909 103.714C69.4492 104.217 69.5753 105.158 69.0724 105.817C68.5695 106.475 67.6282 106.601 66.9698 106.098L68.7909 103.714ZM14.2833 98.744C22.8577 103.329 33.2244 103.381 43.738 98.6966L44.959 101.437C33.7508 106.431 22.3958 106.484 12.8687 101.39L14.2833 98.744ZM43.738 98.6966C48.5374 96.5581 53.7694 97.0427 58.2229 98.389C62.6851 99.7379 66.5549 102.006 68.7909 103.714L66.9698 106.098C64.9822 104.58 61.4303 102.493 57.3548 101.261C53.2703 100.026 48.8482 99.7039 44.959 101.437L43.738 98.6966Z" fill="#F1C195"/>
<path d="M12.8687 113.731C12.1382 113.341 11.8626 112.432 12.2532 111.701C12.6438 110.971 13.5527 110.695 14.2833 111.086L12.8687 113.731ZM44.3485 112.409L43.738 111.039L44.3485 112.409ZM68.7909 116.056C69.4492 116.559 69.5753 117.5 69.0724 118.159C68.5695 118.817 67.6282 118.943 66.9698 118.44L68.7909 116.056ZM14.2833 111.086C22.8577 115.671 33.2244 115.723 43.738 111.039L44.959 113.779C33.7508 118.773 22.3958 118.826 12.8687 113.731L14.2833 111.086ZM43.738 111.039C48.5374 108.9 53.7694 109.385 58.2229 110.731C62.6851 112.08 66.5549 114.348 68.7909 116.056L66.9698 118.44C64.9822 116.922 61.4303 114.835 57.3548 113.603C53.2703 112.368 48.8482 112.046 44.959 113.779L43.738 111.039Z" fill="#F1C195"/>
<path d="M96.7938 89.0476C96.0632 88.657 95.7876 87.7481 96.1783 87.0176C96.5689 86.287 97.4778 86.0114 98.2083 86.4021L96.7938 89.0476ZM128.274 87.7248L127.663 86.3547L128.274 87.7248ZM152.716 91.3722C153.374 91.8751 153.5 92.8164 152.997 93.4747C152.495 94.1331 151.553 94.2591 150.895 93.7562L152.716 91.3722ZM98.2083 86.4021C106.783 90.9867 117.149 91.0393 127.663 86.3547L128.884 89.095C117.676 94.0891 106.321 94.1417 96.7938 89.0476L98.2083 86.4021ZM127.663 86.3547C132.462 84.2162 137.694 84.7008 142.148 86.047C146.61 87.396 150.48 89.6642 152.716 91.3722L150.895 93.7562C148.907 92.238 145.355 90.1507 141.28 88.9187C137.195 87.684 132.773 87.362 128.884 89.095L127.663 86.3547Z" fill="#F1C195"/>
<path d="M96.7938 101.39C96.0632 100.999 95.7876 100.09 96.1783 99.3595C96.5689 98.6289 97.4778 98.3534 98.2083 98.744L96.7938 101.39ZM128.274 100.067L127.663 98.6966L128.274 100.067ZM152.716 103.714C153.374 104.217 153.5 105.158 152.997 105.817C152.495 106.475 151.553 106.601 150.895 106.098L152.716 103.714ZM98.2083 98.744C106.783 103.329 117.149 103.381 127.663 98.6966L128.884 101.437C117.676 106.431 106.321 106.484 96.7938 101.39L98.2083 98.744ZM127.663 98.6966C132.462 96.5581 137.694 97.0427 142.148 98.389C146.61 99.7379 150.48 102.006 152.716 103.714L150.895 106.098C148.907 104.58 145.355 102.493 141.28 101.261C137.195 100.026 132.773 99.7039 128.884 101.437L127.663 98.6966Z" fill="#F1C195"/>
<path d="M96.7938 113.731C96.0632 113.341 95.7876 112.432 96.1783 111.701C96.5689 110.971 97.4778 110.695 98.2083 111.086L96.7938 113.731ZM128.274 112.409L127.663 111.039L128.274 112.409ZM152.716 116.056C153.374 116.559 153.5 117.5 152.997 118.159C152.495 118.817 151.553 118.943 150.895 118.44L152.716 116.056ZM98.2083 111.086C106.783 115.671 117.149 115.723 127.663 111.039L128.884 113.779C117.676 118.773 106.321 118.826 96.7938 113.731L98.2083 111.086ZM127.663 111.039C132.462 108.9 137.694 109.385 142.148 110.731C146.61 112.08 150.48 114.348 152.716 116.056L150.895 118.44C148.907 116.922 145.355 114.835 141.28 113.603C137.195 112.368 132.773 112.046 128.884 113.779L127.663 111.039Z" fill="#F1C195"/>
<path d="M96.7938 52.022C96.0632 51.6314 95.7876 50.7225 96.1783 49.9919C96.5689 49.2614 97.4778 48.9858 98.2083 49.3764L96.7938 52.022ZM128.274 50.6992L127.663 49.3291L128.274 50.6992ZM152.716 54.3465C153.374 54.8494 153.5 55.7908 152.997 56.4491C152.495 57.1074 151.553 57.2335 150.895 56.7306L152.716 54.3465ZM98.2083 49.3764C106.783 53.9611 117.149 54.0137 127.663 49.3291L128.884 52.0693C117.676 57.0635 106.321 57.116 96.7938 52.022L98.2083 49.3764ZM127.663 49.3291C132.462 47.1905 137.694 47.6751 142.148 49.0214C146.61 50.3704 150.48 52.6385 152.716 54.3465L150.895 56.7306C148.907 55.2124 145.355 53.1251 141.28 51.8931C137.195 50.6583 132.773 50.3364 128.884 52.0693L127.663 49.3291Z" fill="#F1C195"/>
<path d="M96.7938 39.6801C96.0632 39.2894 95.7876 38.3806 96.1783 37.65C96.5689 36.9194 97.4778 36.6439 98.2083 37.0345L96.7938 39.6801ZM128.274 38.3573L127.663 36.9871L128.274 38.3573ZM152.716 42.0046C153.374 42.5075 153.5 43.4488 152.997 44.1072C152.495 44.7655 151.553 44.8916 150.895 44.3887L152.716 42.0046ZM98.2083 37.0345C106.783 41.6192 117.149 41.6718 127.663 36.9871L128.884 39.7274C117.676 44.7215 106.321 44.7741 96.7938 39.6801L98.2083 37.0345ZM127.663 36.9871C132.462 34.8486 137.694 35.3332 142.148 36.6795C146.61 38.0284 150.48 40.2966 152.716 42.0046L150.895 44.3887C148.907 42.8704 145.355 40.7832 141.28 39.5511C137.195 38.3164 132.773 37.9945 128.884 39.7274L127.663 36.9871Z" fill="#F1C195"/>
<path d="M96.7938 64.3639C96.0632 63.9733 95.7876 63.0644 96.1783 62.3338C96.5689 61.6033 97.4778 61.3277 98.2083 61.7183L96.7938 64.3639ZM128.274 63.0411L127.663 61.671L128.274 63.0411ZM152.716 66.6885C153.374 67.1913 153.5 68.1327 152.997 68.791C152.495 69.4494 151.553 69.5754 150.895 69.0725L152.716 66.6885ZM98.2083 61.7183C106.783 66.303 117.149 66.3556 127.663 61.671L128.884 64.4113C117.676 69.4054 106.321 69.458 96.7938 64.3639L98.2083 61.7183ZM127.663 61.671C132.462 59.5325 137.694 60.0171 142.148 61.3633C146.61 62.7123 150.48 64.9805 152.716 66.6885L150.895 69.0725C148.907 67.5543 145.355 65.467 141.28 64.235C137.195 63.0003 132.773 62.6783 128.884 64.4113L127.663 61.671Z" fill="#F1C195"/>
<path d="M96.7938 76.7058C96.0632 76.3152 95.7876 75.4063 96.1783 74.6758C96.5689 73.9452 97.4778 73.6696 98.2083 74.0603L96.7938 76.7058ZM128.274 75.383L127.663 74.0129L128.274 75.383ZM152.716 79.0304C153.374 79.5333 153.5 80.4746 152.997 81.1329C152.495 81.7913 151.553 81.9173 150.895 81.4144L152.716 79.0304ZM98.2083 74.0603C106.783 78.6449 117.149 78.6975 127.663 74.0129L128.884 76.7532C117.676 81.7473 106.321 81.7999 96.7938 76.7058L98.2083 74.0603ZM127.663 74.0129C132.462 71.8744 137.694 72.359 142.148 73.7052C146.61 75.0542 150.48 77.3224 152.716 79.0304L150.895 81.4144C148.907 79.8962 145.355 77.809 141.28 76.5769C137.195 75.3422 132.773 75.0202 128.884 76.7532L127.663 74.0129Z" fill="#F1C195"/>
<path fill-rule="evenodd" clip-rule="evenodd" d="M156.616 15.3419H92.6907C88.8247 15.3419 85.6907 18.4759 85.6907 22.3419V34.5573H80.9249V22.3419C80.9249 18.4759 77.7909 15.3419 73.9249 15.3419H10C6.134 15.3419 3 18.4759 3 22.3419V34.5573H0V22.3419C0 16.8191 4.47715 12.3419 10 12.3419H73.9249C78.2291 12.3419 81.8982 15.0613 83.3078 18.8756C84.7175 15.0613 88.3865 12.3419 92.6907 12.3419H156.616C162.139 12.3419 166.616 16.8191 166.616 22.3419V34.5573H163.616V22.3419C163.616 18.4759 160.482 15.3419 156.616 15.3419Z" fill="#F1C195"/>
<path fill-rule="evenodd" clip-rule="evenodd" d="M73.9249 3H10C6.134 3 3 6.134 3 9.99999V22.2154H0V9.99999C0 4.47715 4.47715 0 10 0H73.9249C78.2291 0 81.8982 2.71933 83.3078 6.53368C84.7175 2.71933 88.3865 0 92.6907 0H156.616C162.139 0 166.616 4.47715 166.616 10V22.2154H163.616V10C163.616 6.13401 160.482 3 156.616 3H92.6907C88.8247 3 85.6907 6.134 85.6907 9.99999V22.2154H80.9249V10C80.9249 6.13401 77.7909 3 73.9249 3Z" fill="#F1C195"/>
<path fill-rule="evenodd" clip-rule="evenodd" d="M73.9249 9.1709H10C6.134 9.1709 3 12.3049 3 16.1709V28.3864H0V16.1709C0 10.648 4.47715 6.1709 10 6.1709H73.9249C78.2291 6.1709 81.8982 8.89024 83.3078 12.7046C84.7175 8.89027 88.3865 6.17095 92.6907 6.17095H156.616C162.139 6.17095 166.616 10.6481 166.616 16.171V28.3864H163.616V16.171C163.616 12.305 160.482 9.17095 156.616 9.17095H92.6907C88.8247 9.17095 85.6907 12.305 85.6907 16.1709V28.3864H80.9249V16.1709C80.9249 12.3049 77.7909 9.1709 73.9249 9.1709Z" fill="#F1C195"/>
<path d="M175 54.5C176 59 178 63 180.5 66" stroke="#F1C195" stroke-width="2" stroke-linecap="round"/>
</svg>
