<svg width="255" height="173" viewBox="0 0 255 173" fill="none" xmlns="http://www.w3.org/2000/svg">
<rect x="1.79155" y="95.4569" width="71.953" height="29.876" rx="3.5" transform="rotate(-12.623 1.79155 95.4569)" stroke="#F1C195" stroke-width="3"/>
<path d="M21.0105 91.4694L53.5867 84.1741L56.235 95.9997C56.6574 97.8859 55.4708 99.7575 53.5845 100.18L27.8391 105.946C25.9529 106.368 24.0813 105.181 23.6589 103.295L21.0105 91.4694Z" stroke="#F1C195" stroke-width="3"/>
<path d="M73.6385 128.407C72.7702 126.117 74.462 123.666 76.9112 123.666H172.926C175.304 123.666 176.989 125.987 176.254 128.248L162.983 169.082C162.515 170.524 161.171 171.5 159.655 171.5H92.394C90.9397 171.5 89.637 170.601 89.1214 169.241L73.6385 128.407Z" stroke="#F1C195" stroke-width="3"/>
<path d="M175.646 129.922L171.316 143.778L250.244 136.957C252.07 136.799 253.465 135.259 253.442 133.427L253.356 126.54C253.33 124.498 251.568 122.911 249.534 123.099L175.646 129.922Z" stroke="#F1C195" stroke-width="3"/>
<circle cx="104.616" cy="95.6902" r="3.7952" stroke="#F1C195" stroke-width="3"/>
<circle cx="125.797" cy="96.7492" r="3.7952" stroke="#F1C195" stroke-width="3"/>
<circle cx="143.801" cy="113.694" r="3.7952" stroke="#F1C195" stroke-width="3"/>
<circle cx="116.266" cy="109.458" r="1.67712" stroke="#F1C195" stroke-width="3"/>
<circle cx="83.4357" cy="122.166" r="1.67712" stroke="#F1C195" stroke-width="3"/>
<circle cx="88.7308" cy="96.7492" r="1.67712" stroke="#F1C195" stroke-width="3"/>
<circle cx="79.1993" cy="102.044" r="1.67712" stroke="#F1C195" stroke-width="3"/>
<circle cx="102.498" cy="108.399" r="1.67712" stroke="#F1C195" stroke-width="3"/>
<circle cx="127.915" cy="116.871" r="1.67712" stroke="#F1C195" stroke-width="3"/>
<circle cx="117.325" cy="80.8636" r="1.67712" stroke="#F1C195" stroke-width="3"/>
<circle cx="79.1995" cy="91.454" r="3.7952" stroke="#F1C195" stroke-width="3"/>
<circle cx="105.675" cy="120.048" r="3.7952" stroke="#F1C195" stroke-width="3"/>
<circle cx="88.7307" cy="111.576" r="3.7952" stroke="#F1C195" stroke-width="3"/>
<path d="M100.513 85.1363C99.9077 85.7021 98.9585 85.6703 98.3927 85.0652C97.8268 84.4601 97.8587 83.5109 98.4638 82.9451L100.513 85.1363ZM99.4883 57.6353L98.3684 58.6333L99.4883 57.6353ZM106.972 36.1879C107.665 35.7342 108.595 35.9283 109.048 36.6214C109.502 37.3145 109.308 38.2443 108.615 38.698L106.972 36.1879ZM98.4638 82.9451C102.393 79.271 104.217 75.3729 104.217 71.4205C104.217 67.4395 102.367 63.12 98.3684 58.6333L100.608 56.6373C104.915 61.4701 107.217 66.4702 107.217 71.4205C107.217 76.3992 104.889 81.0441 100.513 85.1363L98.4638 82.9451ZM98.3684 58.6333C96.4669 56.4995 95.663 54.17 95.7046 51.8181C95.7454 49.5094 96.5969 47.2986 97.7894 45.3263C100.162 41.4024 104.097 38.07 106.972 36.1879L108.615 38.698C105.953 40.4401 102.414 43.4761 100.357 46.8784C99.3344 48.5692 98.7326 50.261 98.7041 51.871C98.6764 53.4378 99.1875 55.0432 100.608 56.6373L98.3684 58.6333Z" fill="#F1C195"/>
<path d="M142.874 85.1363C142.269 85.7021 141.32 85.6703 140.754 85.0652C140.188 84.4601 140.22 83.5109 140.825 82.9451L142.874 85.1363ZM141.85 57.6353L140.73 58.6333L141.85 57.6353ZM149.334 36.1879C150.027 35.7342 150.956 35.9283 151.41 36.6214C151.864 37.3145 151.67 38.2443 150.977 38.698L149.334 36.1879ZM140.825 82.9451C144.754 79.271 146.579 75.3729 146.579 71.4205C146.579 67.4395 144.728 63.12 140.73 58.6333L142.97 56.6373C147.276 61.4701 149.579 66.4702 149.579 71.4205C149.579 76.3992 147.251 81.0441 142.874 85.1363L140.825 82.9451ZM140.73 58.6333C138.829 56.4995 138.025 54.17 138.066 51.8181C138.107 49.5094 138.958 47.2986 140.151 45.3263C142.523 41.4024 146.458 38.07 149.334 36.1879L150.977 38.698C148.315 40.4401 144.775 43.4761 142.718 46.8784C141.696 48.5692 141.094 50.261 141.066 51.871C141.038 53.4378 141.549 55.0432 142.97 56.6373L140.73 58.6333Z" fill="#F1C195"/>
<path d="M121.694 50.188C121.089 50.7538 120.139 50.722 119.574 50.1169C119.008 49.5118 119.04 48.5626 119.645 47.9968L121.694 50.188ZM120.669 22.687L119.549 23.6849L120.669 22.687ZM128.153 1.2396C128.846 0.785884 129.776 0.979975 130.229 1.67311C130.683 2.36625 130.489 3.29595 129.796 3.74966L128.153 1.2396ZM119.645 47.9968C123.574 44.3227 125.398 40.4246 125.398 36.4722C125.398 32.4912 123.548 28.1717 119.549 23.6849L121.789 21.689C126.096 26.5218 128.398 31.5219 128.398 36.4722C128.398 41.4509 126.07 46.0958 121.694 50.188L119.645 47.9968ZM119.549 23.6849C117.648 21.5512 116.844 19.2217 116.885 16.8698C116.926 14.5611 117.778 12.3503 118.97 10.378C121.343 6.45407 125.278 3.12169 128.153 1.2396L129.796 3.74966C127.134 5.49184 123.595 8.52782 121.538 11.9301C120.515 13.6209 119.913 15.3127 119.885 16.9227C119.857 18.4895 120.368 20.0949 121.789 21.689L119.549 23.6849Z" fill="#F1C195"/>
<line x1="91.6902" y1="160.743" x2="80.7096" y2="129.797" stroke="#F1C195" stroke-width="2" stroke-linecap="round"/>
</svg>
