<svg width="204" height="139" viewBox="0 0 204 139" fill="none" xmlns="http://www.w3.org/2000/svg">
<rect x="76.0529" y="56.7697" width="126.447" height="79.1886" rx="8.5" stroke="#F1C195" stroke-width="3"/>
<circle cx="189.103" cy="70.1663" r="7.23253" stroke="#F1C195" stroke-width="3"/>
<circle cx="140.304" cy="96.3639" r="39.5943" stroke="#F1C195" stroke-width="3"/>
<circle cx="140.304" cy="96.3639" r="33.2721" stroke="#F1C195" stroke-width="3"/>
<rect x="87.3539" y="49.87" width="36.0396" height="6.24621" rx="3.12311" stroke="#F1C195" stroke-width="3"/>
<rect x="37.1703" y="132.485" width="135.6" height="15.3058" rx="3.5" transform="rotate(-73.3688 37.1703 132.485)" stroke="#F1C195" stroke-width="3"/>
<rect x="19.5184" y="132.485" width="135.6" height="15.3058" rx="3.5" transform="rotate(-73.3688 19.5184 132.485)" stroke="#F1C195" stroke-width="3"/>
<rect x="1.86657" y="132.485" width="135.6" height="15.3058" rx="3.5" transform="rotate(-73.3688 1.86657 132.485)" stroke="#F1C195" stroke-width="3"/>
<path d="M60.5192 87.4703C60.0609 88.1604 59.1299 88.3484 58.4398 87.8901C57.7497 87.4318 57.5618 86.5008 58.0201 85.8107L60.5192 87.4703ZM70.3685 45.2445L68.8686 45.2612L70.3685 45.2445ZM81.8105 13.7086C82.3502 13.0801 83.2972 13.0082 83.9257 13.548C84.5541 14.0878 84.626 15.0348 84.0863 15.6632L81.8105 13.7086ZM58.0201 85.8107C65.1821 75.026 69.0411 60.7236 68.8686 45.2612L71.8684 45.2277C72.0464 61.1805 68.0709 76.0989 60.5192 87.4703L58.0201 85.8107ZM68.8686 45.2612C68.7949 38.6579 70.9764 32.0174 73.6606 26.4571C76.3496 20.887 79.6019 16.28 81.8105 13.7086L84.0863 15.6632C82.0431 18.0421 78.9354 22.4313 76.3623 27.7614C73.7844 33.1013 71.8019 39.265 71.8684 45.2277L68.8686 45.2612Z" fill="#F1C195"/>
<path d="M41.7747 87.4703C41.3164 88.1604 40.3854 88.3484 39.6953 87.8901C39.0052 87.4318 38.8173 86.5008 39.2756 85.8107L41.7747 87.4703ZM51.624 45.2445L50.1241 45.2612L51.624 45.2445ZM63.0659 13.7086C63.6057 13.0801 64.5527 13.0082 65.1812 13.548C65.8096 14.0878 65.8815 15.0348 65.3418 15.6632L63.0659 13.7086ZM39.2756 85.8107C46.4376 75.026 50.2966 60.7236 50.1241 45.2612L53.1239 45.2277C53.3019 61.1805 49.3264 76.0989 41.7747 87.4703L39.2756 85.8107ZM50.1241 45.2612C50.0504 38.6579 52.2319 32.0174 54.9161 26.4571C57.6051 20.887 60.8574 16.28 63.0659 13.7086L65.3418 15.6632C63.2986 18.0421 60.1909 22.4313 57.6178 27.7614C55.0399 33.1013 53.0574 39.265 53.1239 45.2277L50.1241 45.2612Z" fill="#F1C195"/>
<path d="M24.6221 87.4703C24.1638 88.1604 23.2329 88.3484 22.5427 87.8901C21.8526 87.4318 21.6647 86.5008 22.123 85.8107L24.6221 87.4703ZM34.4714 45.2445L32.9715 45.2612L34.4714 45.2445ZM45.9134 13.7086C46.4531 13.0801 47.4001 13.0082 48.0286 13.548C48.657 14.0878 48.7289 15.0348 48.1892 15.6632L45.9134 13.7086ZM22.123 85.8107C29.285 75.026 33.144 60.7236 32.9715 45.2612L35.9713 45.2277C36.1493 61.1805 32.1738 76.0989 24.6221 87.4703L22.123 85.8107ZM32.9715 45.2612C32.8978 38.6579 35.0793 32.0174 37.7635 26.4571C40.4525 20.887 43.7048 16.28 45.9134 13.7086L48.1892 15.6632C46.146 18.0421 43.0383 22.4313 40.4652 27.7614C37.8874 33.1013 35.9048 39.265 35.9713 45.2277L32.9715 45.2612Z" fill="#F1C195"/>
</svg>
