<svg width="51" height="50" viewBox="0 0 51 50" fill="none" xmlns="http://www.w3.org/2000/svg">
<path d="M50.9997 25.0117C50.9997 38.8136 39.8182 50.0234 25.9989 50.0234C12.2029 50.0234 0.998047 38.837 0.998047 25.0117C1.02139 11.1864 12.2029 0 26.0222 0C39.8182 0 50.9997 11.1864 50.9997 25.0117Z" fill="#F1C195"/>
<path d="M18.5991 27.16C18.9493 27.3002 19.2761 27.16 19.3928 26.763C19.4629 26.4828 19.6496 25.7822 19.7196 25.5019C19.8363 25.1049 19.7897 24.9648 19.4862 24.6145C18.8559 23.8672 18.4357 22.8863 18.4357 21.5085C18.4357 17.515 21.4237 13.9419 26.2091 13.9419C30.4576 13.9419 32.792 16.5342 32.792 20.0139C32.792 24.5678 30.7844 28.4211 27.7731 28.4211C26.1157 28.4211 24.8785 27.0433 25.2754 25.3852C25.7422 23.3768 26.676 21.2282 26.676 19.7803C26.676 18.4959 25.9757 17.3983 24.5517 17.3983C22.871 17.3983 21.4937 19.1498 21.4937 21.4851C21.4937 22.9798 22.0073 23.984 22.0073 23.984C22.0073 23.984 20.2799 31.317 19.9764 32.6014C19.3695 35.147 19.883 38.2997 19.9297 38.6033C19.9531 38.7901 20.1865 38.8368 20.3032 38.6967C20.4666 38.4865 22.4742 36.011 23.1511 33.5122C23.3379 32.8116 24.2716 29.1685 24.2716 29.1685C24.8085 30.2194 26.4192 31.1302 28.1233 31.1302C33.2121 31.1302 36.6436 26.5061 36.6436 20.2941C36.6436 15.6 32.6753 11.2329 26.6293 11.2329C19.1127 11.2329 15.3311 16.6276 15.3311 21.1115C15.3544 23.8438 16.3815 26.2493 18.5991 27.16Z" fill="white"/>
</svg>
