<svg width="155" height="132" viewBox="0 0 155 132" fill="none" xmlns="http://www.w3.org/2000/svg">
<g opacity="0.8" filter="url(#filter0_d)">
<path d="M69.4885 54.1171C65.0785 54.1171 61.477 57.5636 61.477 62.6966C61.477 67.7564 65.0785 71.2028 69.4885 71.2028C73.825 71.2028 77.5 67.7564 77.5 62.6966C77.5 57.5636 73.8985 54.1171 69.4885 54.1171Z" fill="#F1C195"/>
<path d="M87.937 82.4955C85.8055 82.4955 84.409 84.4021 84.409 86.9686C84.409 89.5352 85.8055 91.4417 87.8635 91.4417C89.995 91.4417 91.3915 89.5352 91.3915 86.9686C91.465 84.4021 90.0685 82.4955 87.937 82.4955Z" fill="#F1C195"/>
<path d="M45.8215 54.1171C41.4115 54.1171 37.81 57.5636 37.81 62.6966C37.81 67.7564 41.4115 71.2028 45.8215 71.2028C50.158 71.2028 53.833 67.7564 53.833 62.6966C53.833 57.5636 50.2315 54.1171 45.8215 54.1171Z" fill="#F1C195"/>
<path d="M59.7865 39.0846H70.591L65.2255 27.1319L59.7865 39.0846Z" fill="#F1C195"/>
<path d="M77.5 0C36.928 0 4 32.8516 4 73.3294C4 92.9817 11.791 110.801 24.3595 124C29.0635 118.647 35.9725 115.274 43.69 115.274C47.4385 115.274 50.9665 116.08 54.127 117.474C58.1695 108.601 67.1365 102.441 77.5 102.441C87.8635 102.441 96.8305 108.601 100.873 117.474C104.034 116.08 107.635 115.274 111.31 115.274C119.028 115.274 125.937 118.647 130.641 124C143.283 110.801 151 92.9817 151 73.3294C151 32.8516 118.072 0 77.5 0ZM103.666 53.5305C103.666 53.5305 103.666 52.9438 104.475 52.9438C105.283 52.9438 105.283 53.5305 105.283 53.5305V71.7895C105.283 71.7895 105.283 72.3761 104.475 72.3761C103.666 72.3761 103.666 71.7895 103.666 71.7895V53.5305ZM101.167 27.4252C101.167 26.8386 101.608 26.5452 102.196 26.5452C103.005 26.5452 103.519 27.0585 103.519 27.9385C103.519 29.4051 102.123 31.0917 101.608 31.0917C101.241 31.0917 101.02 30.7983 101.02 30.5784C101.02 30.1384 101.902 29.6984 101.902 28.9651C101.902 28.5985 101.167 28.1585 101.167 27.4252ZM94.7725 26.0319C94.7725 26.0319 94.7725 25.4453 95.581 25.4453C96.3895 25.4453 96.3895 26.0319 96.3895 26.0319V44.291C96.3895 44.291 96.3895 44.8776 95.581 44.8776C94.7725 44.8776 94.7725 44.291 94.7725 44.291V26.0319ZM78.7495 26.0319C78.7495 26.0319 78.7495 25.4453 79.558 25.4453C80.3665 25.4453 80.3665 26.0319 80.3665 26.0319V43.411H90.2155C90.2155 43.411 90.8035 43.411 90.8035 44.1443C90.8035 44.8776 90.2155 44.8776 90.2155 44.8776H79.3375C79.0435 44.8776 78.823 44.6576 78.823 44.3643V26.0319H78.7495ZM55.891 43.9976L64.1965 26.0319C64.417 25.5186 64.564 25.2986 65.2255 25.2986C65.8135 25.2986 66.034 25.6653 66.181 26.0319L74.4865 43.9976C74.4865 43.9976 74.56 44.2176 74.56 44.3643C74.56 44.5109 74.56 44.8776 73.8985 44.8776C73.384 44.8776 73.09 44.5843 73.0165 44.3643L71.2525 40.4778H59.125L57.361 44.3643C57.214 44.6576 57.067 44.8776 56.479 44.8776C56.038 44.8776 55.8175 44.5843 55.8175 44.291C55.8175 44.1443 55.891 43.9976 55.891 43.9976ZM31.93 69.7362C30.6805 71.1295 28.3285 72.5961 25.2415 72.5961C19.9495 72.5961 15.5395 69.2963 15.5395 63.0633C15.5395 55.7303 20.3905 52.6505 25.2415 52.6505C28.99 52.6505 31.636 54.6304 31.636 57.3436C31.636 58.5168 31.1215 59.4701 30.46 59.4701C30.0925 59.4701 29.7985 59.2501 29.7985 58.9568C29.7985 58.6635 30.0925 58.5902 30.0925 57.6369C30.166 55.437 27.961 54.1171 25.2415 54.1171C21.1255 54.1171 17.083 56.3903 17.083 63.0633C17.083 68.6363 20.8315 71.2028 25.3885 71.2028C28.1815 71.2028 30.2395 69.5896 31.2685 68.4896C31.4155 68.343 31.5625 68.1963 31.783 68.1963C32.1505 68.1963 32.371 68.4897 32.371 68.783C32.371 69.1496 32.077 69.5896 31.93 69.7362ZM45.2335 25.152C48.982 25.152 51.628 27.1319 51.628 29.8451C51.628 31.0183 51.1135 31.9716 50.452 31.9716C50.0845 31.9716 49.7905 31.7516 49.7905 31.4583C49.7905 31.165 50.0845 31.0917 50.0845 30.1384C50.158 27.9385 47.953 26.6186 45.2335 26.6186C41.1175 26.6186 37.075 28.8918 37.075 35.5648C37.075 41.1378 40.8235 43.7043 45.3805 43.7043C48.1735 43.7043 50.2315 42.0911 51.2605 40.9911C51.4075 40.8445 51.5545 40.6978 51.775 40.6978C52.1425 40.6978 52.363 40.9911 52.363 41.2844C52.363 41.6511 52.069 42.0177 51.922 42.2377C50.6725 43.631 48.3205 45.0976 45.2335 45.0976C39.9415 45.0976 35.5315 41.7978 35.5315 35.5648C35.5315 28.2318 40.3825 25.152 45.2335 25.152ZM52.363 92.1017H46.483C46.336 92.1017 46.2625 92.0284 46.2625 91.8817V82.9355C46.2625 82.7889 46.336 82.7156 46.483 82.7156H51.9955C51.9955 82.7156 52.216 82.7889 52.216 83.0822C52.216 83.3755 51.9955 83.4488 51.9955 83.4488H47.071V87.9953H51.187C51.187 87.9953 51.4075 88.0686 51.4075 88.3619C51.4075 88.6552 51.187 88.7286 51.187 88.7286H47.071V91.2951H52.363C52.363 91.2951 52.5835 91.3684 52.5835 91.6617C52.657 92.1017 52.363 92.1017 52.363 92.1017ZM45.8215 72.6694C40.5295 72.6694 36.2665 68.6363 36.2665 62.77C36.2665 56.8303 40.8235 52.7238 45.8215 52.7238C50.8195 52.7238 55.3765 56.7569 55.3765 62.77C55.3765 68.6363 51.1135 72.6694 45.8215 72.6694ZM57.949 92.2484C55.891 92.2484 54.4945 91.5151 54.4945 90.1952C54.4945 89.3885 55.009 88.9486 55.303 88.9486C55.45 88.9486 55.597 89.0219 55.597 89.1685C55.597 89.3152 55.303 89.6085 55.303 89.9752C55.303 90.8551 56.332 91.4417 57.8755 91.4417C59.566 91.4417 60.6685 90.7085 60.6685 89.5352C60.6685 87.042 54.7885 88.0686 54.7885 85.0621C54.7885 83.5222 56.1115 82.4956 58.096 82.4956C59.713 82.4956 60.889 83.3022 60.889 84.3288C60.889 84.9154 60.3745 85.3554 60.154 85.3554C59.9335 85.3554 59.86 85.2821 59.86 85.1354C59.86 84.9888 60.0805 84.9154 60.0805 84.4021C60.0805 83.7422 59.3455 83.3022 58.1695 83.3022C56.92 83.3022 55.6705 83.8155 55.6705 84.9888C55.6705 87.482 61.5505 86.4553 61.5505 89.5352C61.5505 91.0018 60.2275 92.2484 57.949 92.2484ZM59.9335 62.6966C59.9335 56.7569 64.4905 52.6505 69.4885 52.6505C74.4865 52.6505 79.0435 56.6836 79.0435 62.6966C79.0435 68.6363 74.7805 72.5961 69.4885 72.5961C64.1965 72.6694 59.9335 68.6363 59.9335 62.6966ZM69.7825 83.4488H66.916V91.8817C66.916 92.0284 66.8425 92.1017 66.475 92.1017C66.181 92.1017 66.034 91.9551 66.034 91.8817V83.4488H63.1675C63.1675 83.4488 62.947 83.3755 62.947 83.0822C62.947 82.7889 63.1675 82.7156 63.1675 82.7156H69.709C69.709 82.7156 69.9295 82.7889 69.9295 83.0822C70.003 83.3755 69.7825 83.4488 69.7825 83.4488ZM71.2525 92.3217C70.8115 92.3217 70.591 91.9551 70.591 91.6617C70.591 91.2951 70.885 91.0018 71.2525 91.0018C71.62 91.0018 71.914 91.3684 71.914 91.6617C71.9875 92.0284 71.6935 92.3217 71.2525 92.3217ZM80.293 92.1017C79.558 92.1017 77.647 91.8084 76.6915 91.8084C75.5155 91.8084 74.707 92.1017 74.56 92.1017C74.3395 92.1017 74.266 92.0284 74.266 91.8084C74.266 91.6617 74.266 91.5884 74.4865 91.2951C76.324 88.6552 80.5135 87.702 80.5135 84.3288C80.5135 82.8622 79.411 82.3489 77.941 82.3489C76.471 82.3489 75.442 83.2289 75.442 84.4755C75.442 85.2821 75.736 85.1354 75.736 85.4287C75.736 85.6487 75.5155 85.7221 75.2215 85.7221C74.9275 85.7221 74.4865 85.2821 74.4865 84.4021C74.4865 82.7889 75.9565 81.5423 77.8675 81.5423C79.7785 81.5423 81.322 82.4956 81.322 84.3288C81.322 87.482 77.647 88.8752 75.6625 91.0018C75.9565 90.9284 76.324 90.9284 76.6915 90.9284C77.7205 90.9284 79.705 91.2218 80.3665 91.2218C81.175 91.2218 81.322 90.8551 81.5425 90.8551C81.763 90.8551 81.763 91.0018 81.763 91.2218C81.763 91.6617 81.322 92.1017 80.293 92.1017ZM87.937 92.2484C85.291 92.2484 83.527 89.9752 83.527 86.9687C83.527 84.0355 85.291 81.6889 87.937 81.6889C90.583 81.6889 92.347 83.9622 92.347 86.9687C92.347 89.9752 90.583 92.2484 87.937 92.2484ZM96.3895 91.8084C96.3895 91.8084 96.3895 92.175 95.9485 92.175C95.5075 92.175 95.5075 91.8084 95.5075 91.8084V83.4488L94.993 84.0355C94.993 84.0355 94.9195 84.1088 94.7725 84.1088C94.4785 84.1088 94.258 83.8888 94.258 83.6688C94.258 83.5222 94.405 83.3755 94.405 83.3755L95.6545 81.9089C95.8015 81.7623 95.9485 81.7623 96.022 81.7623C96.2425 81.7623 96.3895 81.9089 96.3895 82.0556V91.8084ZM87.496 62.8433L85.879 64.4565V71.7895C85.879 71.7895 85.879 72.3761 85.0705 72.3761C84.262 72.3761 84.262 71.7895 84.262 71.7895V53.5305C84.262 53.5305 84.262 52.9438 85.0705 52.9438C85.879 52.9438 85.879 53.5305 85.879 53.5305V62.6966L95.287 53.2371C95.287 53.2371 95.434 52.9438 95.8015 52.9438C96.316 52.9438 96.5365 53.2371 96.5365 53.5305C96.5365 53.8971 96.169 54.2637 96.169 54.2637L88.525 61.8167C91.9795 64.0166 95.875 70.9828 98.4475 70.9828C98.962 70.9828 99.1825 70.9095 99.256 70.9095C99.55 70.9095 99.697 71.0562 99.697 71.4228C99.697 71.9361 99.109 72.3761 98.227 72.3761C94.699 72.3761 90.6565 64.3832 87.496 62.8433ZM102.049 92.2484C100.579 92.2484 99.7705 91.3684 99.7705 91.0751C99.7705 90.7818 100.064 90.6351 100.211 90.6351C100.506 90.6351 100.652 91.4417 102.049 91.4417C103.886 91.4417 105.504 89.7552 105.504 86.3087C105.504 83.6688 104.401 82.4222 102.564 82.4222C101.02 82.4222 99.6235 83.6688 99.6235 85.6487C99.6235 87.042 100.579 88.2153 102.343 88.2153C103.887 88.2153 104.181 87.1153 104.548 87.1153C104.769 87.1153 104.842 87.262 104.842 87.4086C104.842 87.6286 103.887 88.9486 102.343 88.9486C100.065 88.9486 98.7415 87.482 98.7415 85.5754C98.7415 83.3022 100.506 81.6156 102.564 81.6156C104.989 81.6156 106.386 83.2289 106.386 86.3087C106.386 90.1218 104.327 92.2484 102.049 92.2484ZM107.562 40.3312C107.562 38.7912 108.297 38.2046 108.958 38.2046C109.326 38.2046 109.546 38.3513 109.546 38.6446C109.546 39.0112 109.031 39.1579 109.031 40.4045C109.031 42.531 111.163 43.7043 114.471 43.7043C117.852 43.7043 120.351 42.0911 120.351 39.6712C120.351 36.8847 117.484 36.298 114.618 35.3448C111.531 34.3182 108.37 33.6582 108.37 30.1384C108.37 27.2785 110.648 25.2253 114.911 25.2253C118.66 25.2253 120.571 27.0585 120.571 29.1118C120.571 30.3584 119.836 31.0917 119.174 31.0917C118.881 31.0917 118.66 30.945 118.66 30.6517C118.66 30.2117 119.174 29.9184 119.174 29.1851C119.174 27.8652 117.778 26.6919 114.911 26.6919C111.825 26.6919 109.84 27.7185 109.84 29.8451C109.84 32.2649 111.531 32.8516 115.206 33.9515C118.44 34.9048 121.894 35.7847 121.894 39.5245C121.894 42.971 118.881 45.2442 114.618 45.2442C110.428 45.0976 107.562 43.631 107.562 40.3312ZM123.438 72.3761H111.531C111.237 72.3761 111.016 72.1561 111.016 71.8628V53.4571C111.016 53.1638 111.237 52.9438 111.531 52.9438H122.702C122.702 52.9438 123.291 53.0171 123.291 53.6771C123.291 54.3371 122.702 54.4104 122.702 54.4104H112.56V64.0166H121.159C121.159 64.0166 121.747 64.0899 121.747 64.7499C121.747 65.4098 121.159 65.4831 121.159 65.4831H112.56V70.9828H123.438C123.438 70.9828 124.026 71.0562 124.026 71.7161C124.026 72.3028 123.438 72.3761 123.438 72.3761ZM134.536 72.6694C130.494 72.6694 127.627 71.2028 127.627 67.903C127.627 66.3631 128.362 65.7765 129.024 65.7765C129.391 65.7765 129.611 65.9231 129.611 66.2164C129.611 66.5831 129.097 66.7297 129.097 67.9763C129.097 70.1029 131.229 71.2762 134.536 71.2762C137.917 71.2762 140.416 69.6629 140.416 67.243C140.416 64.4565 137.549 63.8699 134.683 62.9166C131.596 61.89 128.436 61.23 128.436 57.7102C128.436 54.8504 130.714 52.7972 134.977 52.7972C138.725 52.7972 140.637 54.6304 140.637 56.6836C140.637 57.9302 139.902 58.6635 139.24 58.6635C138.946 58.6635 138.726 58.5169 138.726 58.2235C138.726 57.7836 139.24 57.4902 139.24 56.7569C139.24 55.437 137.844 54.2637 134.977 54.2637C131.89 54.2637 129.906 55.2904 129.906 57.4169C129.906 59.8368 131.596 60.4234 135.271 61.5234C138.505 62.4766 141.96 63.3566 141.96 67.0964C141.812 70.3962 138.799 72.6694 134.536 72.6694Z" fill="#F1C195"/>
</g>
<defs>
<filter id="filter0_d" x="0" y="0" width="155" height="132" filterUnits="userSpaceOnUse" color-interpolation-filters="sRGB">
<feFlood flood-opacity="0" result="BackgroundImageFix"/>
<feColorMatrix in="SourceAlpha" type="matrix" values="0 0 0 0 0 0 0 0 0 0 0 0 0 0 0 0 0 0 127 0"/>
<feOffset dy="4"/>
<feGaussianBlur stdDeviation="2"/>
<feColorMatrix type="matrix" values="0 0 0 0 0 0 0 0 0 0 0 0 0 0 0 0 0 0 0.25 0"/>
<feBlend mode="normal" in2="BackgroundImageFix" result="effect1_dropShadow"/>
<feBlend mode="normal" in="SourceGraphic" in2="effect1_dropShadow" result="shape"/>
</filter>
</defs>
</svg>
