<svg width="51" height="50" viewBox="0 0 51 50" fill="none" xmlns="http://www.w3.org/2000/svg">
<path d="M50.32 25.0117C50.32 38.8136 39.1385 50.0234 25.3192 50.0234C11.5232 50.0234 0.318359 38.837 0.318359 25.0117C0.318359 11.1864 11.5232 0 25.3192 0C39.1152 0 50.32 11.1864 50.32 25.0117Z" fill="#F1C195"/>
<path d="M21.7479 39.2108H27.4671V24.8951H31.4588L31.879 20.1076H27.4671C27.4671 20.1076 27.4671 18.3094 27.4671 17.3753C27.4671 16.2543 27.7005 15.7872 28.7976 15.7872C29.6847 15.7872 31.9023 15.7872 31.9023 15.7872V10.7896C31.9023 10.7896 28.6342 10.7896 27.9339 10.7896C23.6854 10.7896 21.7713 12.6578 21.7713 16.2543C21.7713 19.3837 21.7713 20.0843 21.7713 20.0843H18.8066V24.9418H21.7713V39.2108H21.7479Z" fill="white"/>
</svg>
