<svg width="275" height="138" viewBox="0 0 275 138" fill="none" xmlns="http://www.w3.org/2000/svg">
<path d="M34.2112 72.4887C33.6691 70.2831 35.3388 68.1534 37.61 68.1534H103.551C105.774 68.1534 107.434 70.1993 106.976 72.3748L97.3099 118.263C96.9688 119.882 95.54 121.042 93.885 121.042H48.8868C47.2755 121.042 45.8724 119.942 45.4879 118.377L34.2112 72.4887Z" stroke="#F1C195" stroke-width="3"/>
<path d="M135.313 62.9883C134.761 60.7795 136.432 58.6406 138.708 58.6406H241.467C243.695 58.6406 245.356 60.6944 244.89 62.8729L229.728 133.732C229.383 135.347 227.956 136.5 226.306 136.5H156.397C154.791 136.5 153.391 135.406 153.001 133.848L135.313 62.9883Z" stroke="#F1C195" stroke-width="3"/>
<path d="M18.3705 132.997C15.1779 131.267 16.4068 126.42 20.038 126.42H120.986C124.493 126.42 125.821 131.004 122.857 132.878L117.984 135.958C117.425 136.312 116.776 136.5 116.114 136.5H25.7223C25.14 136.5 24.5668 136.355 24.0548 136.077L18.3705 132.997Z" stroke="#F1C195" stroke-width="3"/>
<path d="M235.99 107.371C235.577 109.529 237.231 111.529 239.428 111.529H268.841C271.063 111.529 272.723 109.484 272.266 107.309L267.874 86.3925C267.533 84.7721 266.104 83.6118 264.448 83.6118H243.426C241.746 83.6118 240.303 84.8049 239.988 86.4546L235.99 107.371Z" stroke="#F1C195" stroke-width="3"/>
<path d="M191.666 47.5576C191.048 48.1093 190.1 48.0555 189.548 47.4374C188.996 46.8194 189.05 45.8712 189.668 45.3195L191.666 47.5576ZM190.667 32.2882L189.571 33.3118L190.667 32.2882ZM194.535 20.1952C195.237 19.7562 196.163 19.9699 196.602 20.6724C197.041 21.375 196.827 22.3004 196.124 22.7394L194.535 20.1952ZM189.668 45.3195C191.775 43.4387 192.664 41.5289 192.664 39.6755C192.664 37.791 191.746 35.6421 189.571 33.3118L191.763 31.2645C194.251 33.9285 195.664 36.7739 195.664 39.6755C195.664 42.6083 194.221 45.2766 191.666 47.5576L189.668 45.3195ZM189.571 33.3118C188.39 32.0471 187.858 30.6219 187.885 29.1572C187.911 27.7411 188.456 26.4271 189.167 25.3052C190.575 23.0814 192.877 21.2312 194.535 20.1952L196.124 22.7394C194.674 23.6456 192.779 25.2081 191.701 26.9104C191.168 27.7515 190.897 28.5288 190.885 29.2127C190.873 29.8481 191.079 30.5316 191.763 31.2645L189.571 33.3118Z" fill="#F1C195"/>
<path d="M153.614 47.5576C152.996 48.1093 152.048 48.0555 151.497 47.4374C150.945 46.8194 150.999 45.8712 151.617 45.3195L153.614 47.5576ZM152.616 32.2882L151.519 33.3118L152.616 32.2882ZM156.483 20.1952C157.186 19.7562 158.111 19.9699 158.55 20.6724C158.989 21.375 158.776 22.3004 158.073 22.7394L156.483 20.1952ZM151.617 45.3195C153.724 43.4387 154.613 41.5289 154.613 39.6755C154.613 37.791 153.695 35.6421 151.519 33.3118L153.712 31.2645C156.199 33.9285 157.613 36.7739 157.613 39.6755C157.613 42.6083 156.17 45.2766 153.614 47.5576L151.617 45.3195ZM151.519 33.3118C150.338 32.0471 149.807 30.6219 149.834 29.1572C149.86 27.7411 150.405 26.4271 151.115 25.3052C152.524 23.0814 154.825 21.2312 156.483 20.1952L158.073 22.7394C156.623 23.6456 154.728 25.2081 153.65 26.9104C153.117 27.7515 152.846 28.5288 152.833 29.2127C152.821 29.8481 153.028 30.5316 153.712 31.2645L151.519 33.3118Z" fill="#F1C195"/>
<path d="M210.692 28.5319C210.074 29.0835 209.125 29.0297 208.574 28.4117C208.022 27.7937 208.076 26.8454 208.694 26.2938L210.692 28.5319ZM209.693 13.2624L208.596 14.2861L209.693 13.2624ZM213.561 1.16943C214.263 0.730454 215.189 0.944129 215.628 1.64669C216.067 2.34925 215.853 3.27465 215.15 3.71363L213.561 1.16943ZM208.694 26.2938C210.801 24.4129 211.69 22.5032 211.69 20.6498C211.69 18.7652 210.772 16.6163 208.596 14.2861L210.789 12.2388C213.276 14.9028 214.69 17.7481 214.69 20.6498C214.69 23.5825 213.247 26.2508 210.692 28.5319L208.694 26.2938ZM208.596 14.2861C207.416 13.0213 206.884 11.5961 206.911 10.1315C206.937 8.71538 207.482 7.4013 208.193 6.2794C209.601 4.05568 211.903 2.20541 213.561 1.16943L215.15 3.71363C213.7 4.61985 211.805 6.18234 210.727 7.88466C210.194 8.72577 209.923 9.50304 209.91 10.187C209.899 10.8224 210.105 11.5058 210.789 12.2388L208.596 14.2861Z" fill="#F1C195"/>
<path d="M172.64 28.5319C172.022 29.0835 171.074 29.0297 170.522 28.4117C169.971 27.7937 170.024 26.8454 170.642 26.2938L172.64 28.5319ZM171.641 13.2624L170.545 14.2861L171.641 13.2624ZM175.509 1.16943C176.212 0.730454 177.137 0.944129 177.576 1.64669C178.015 2.34925 177.801 3.27465 177.099 3.71363L175.509 1.16943ZM170.642 26.2938C172.75 24.4129 173.638 22.5032 173.638 20.6498C173.638 18.7652 172.72 16.6163 170.545 14.2861L172.738 12.2388C175.225 14.9028 176.638 17.7481 176.638 20.6498C176.638 23.5825 175.196 26.2508 172.64 28.5319L170.642 26.2938ZM170.545 14.2861C169.364 13.0213 168.832 11.5961 168.859 10.1315C168.886 8.71538 169.43 7.4013 170.141 6.2794C171.55 4.05568 173.851 2.20541 175.509 1.16943L177.099 3.71363C175.648 4.61985 173.754 6.18234 172.675 7.88466C172.143 8.72577 171.872 9.50304 171.859 10.187C171.847 10.8224 172.054 11.5058 172.738 12.2388L170.545 14.2861Z" fill="#F1C195"/>
<path d="M228.528 47.5576C227.91 48.1093 226.962 48.0555 226.41 47.4374C225.859 46.8194 225.913 45.8712 226.531 45.3195L228.528 47.5576ZM227.529 32.2882L226.433 33.3118L227.529 32.2882ZM231.397 20.1952C232.1 19.7562 233.025 19.9699 233.464 20.6724C233.903 21.375 233.689 22.3004 232.987 22.7394L231.397 20.1952ZM226.531 45.3195C228.638 43.4387 229.526 41.5289 229.526 39.6755C229.526 37.791 228.608 35.6421 226.433 33.3118L228.626 31.2645C231.113 33.9285 232.526 36.7739 232.526 39.6755C232.526 42.6083 231.084 45.2766 228.528 47.5576L226.531 45.3195ZM226.433 33.3118C225.252 32.0471 224.72 30.6219 224.747 29.1572C224.774 27.7411 225.318 26.4271 226.029 25.3052C227.438 23.0814 229.739 21.2312 231.397 20.1952L232.987 22.7394C231.536 23.6456 229.642 25.2081 228.563 26.9104C228.031 27.7515 227.76 28.5288 227.747 29.2127C227.735 29.8481 227.942 30.5316 228.626 31.2645L226.433 33.3118Z" fill="#F1C195"/>
<line x1="70.6624" y1="114.407" x2="70.6623" y2="74.7881" stroke="#F1C195" stroke-width="2" stroke-linecap="round"/>
<line x1="1" y1="-1" x2="40.6332" y2="-1" transform="matrix(0.0938261 -0.995589 0.995969 0.0897033 81.0059 116.427)" stroke="#F1C195" stroke-width="2" stroke-linecap="round"/>
<line x1="1" y1="-1" x2="38.6675" y2="-1" transform="matrix(0.172735 -0.984968 0.989092 0.147296 89.3015 116.427)" stroke="#F1C195" stroke-width="2" stroke-linecap="round"/>
<line x1="1" y1="-1" x2="40.6332" y2="-1" transform="matrix(-0.0938261 -0.995589 -0.995969 0.0897033 61.1278 116.427)" stroke="#F1C195" stroke-width="2" stroke-linecap="round"/>
<line x1="1" y1="-1" x2="38.6675" y2="-1" transform="matrix(-0.172735 -0.984968 -0.989092 0.147296 52.8323 116.427)" stroke="#F1C195" stroke-width="2" stroke-linecap="round"/>
<line x1="157.259" y1="117.051" x2="145.842" y2="70.2401" stroke="#F1C195" stroke-width="2" stroke-linecap="round"/>
<circle cx="32.4219" cy="65.4643" r="4.44555" stroke="#F1C195" stroke-width="3"/>
<circle cx="107.336" cy="65.4643" r="4.44555" stroke="#F1C195" stroke-width="3"/>
<circle cx="100.201" cy="57.1406" r="4.44555" stroke="#F1C195" stroke-width="3"/>
<circle cx="90.6881" cy="51.195" r="4.44555" stroke="#F1C195" stroke-width="3"/>
<circle cx="81.1752" cy="47.6277" r="4.44555" stroke="#F1C195" stroke-width="3"/>
<circle cx="70.4733" cy="46.4385" r="4.44555" stroke="#F1C195" stroke-width="3"/>
<circle cx="59.7714" cy="47.6277" r="4.44555" stroke="#F1C195" stroke-width="3"/>
<circle cx="49.0693" cy="51.195" r="4.44555" stroke="#F1C195" stroke-width="3"/>
<circle cx="39.5564" cy="57.1406" r="4.44555" stroke="#F1C195" stroke-width="3"/>
<circle cx="59.7712" cy="60.7079" r="2.06733" stroke="#F1C195" stroke-width="3"/>
<circle cx="46.6911" cy="58.3297" r="2.06733" stroke="#F1C195" stroke-width="3"/>
<circle cx="77.608" cy="58.3297" r="2.06733" stroke="#F1C195" stroke-width="3"/>
<circle cx="90.6882" cy="65.4643" r="2.06733" stroke="#F1C195" stroke-width="3"/>
</svg>
