<svg width="51" height="50" viewBox="0 0 51 50" fill="none" xmlns="http://www.w3.org/2000/svg">
<path d="M50.1833 25.0117C50.1833 38.8136 39.0018 50.0234 25.1825 50.0234C11.3865 50.0234 0.181641 38.837 0.181641 25.0117C0.204984 11.1864 11.3865 0 25.2058 0C39.0018 0 50.1833 11.1864 50.1833 25.0117Z" fill="#F1C195"/>
<path d="M12.6943 33.7458C15.2154 35.3572 18.2267 36.3147 21.4481 36.3147C32.0694 36.3147 38.0453 27.3469 37.6952 19.3133C38.8157 18.5192 39.7728 17.4917 40.5431 16.3474C39.516 16.7911 38.4188 17.118 37.2517 17.2582C38.4422 16.5575 39.3292 15.4366 39.7728 14.1054C38.6756 14.7593 37.4384 15.2264 36.1545 15.4833C35.1041 14.3623 33.6334 13.6851 31.976 13.6851C28.2878 13.6851 25.5799 17.118 26.4203 20.7145C21.6816 20.4809 17.4564 18.1923 14.6318 14.736C13.1379 17.3049 13.8615 20.6678 16.4059 22.3726C15.4722 22.3492 14.5852 22.0923 13.8148 21.6486C13.7448 24.2876 15.6589 26.7864 18.3901 27.3235C17.5731 27.5337 16.7094 27.5804 15.799 27.417C16.5227 29.6823 18.6236 31.3404 21.1447 31.3871C18.7636 33.2787 15.729 34.1194 12.6943 33.7458Z" fill="white"/>
</svg>
