<svg width="50" height="50" viewBox="0 0 50 50" fill="none" xmlns="http://www.w3.org/2000/svg">
<path d="M49.9783 25.0117C49.9783 38.8136 38.7968 50.0234 24.9775 50.0234C11.1582 50.0234 0 38.8136 0 25.0117C0 11.1864 11.1815 0 25.0008 0C38.8201 0 49.9783 11.1864 49.9783 25.0117Z" fill="#F1C195"/>
<path d="M25.0012 12.9147C28.9462 12.9147 29.4131 12.9381 30.9538 13.0082C32.4011 13.0782 33.1714 13.3118 33.685 13.5219C34.3619 13.7788 34.8755 14.1058 35.389 14.6196C35.9026 15.1333 36.2294 15.6238 36.4862 16.3244C36.6963 16.8381 36.9297 17.6322 36.9997 19.0567C37.0698 20.6214 37.0931 21.0885 37.0931 25.0119C37.0931 28.9587 37.0698 29.4257 36.9997 30.9671C36.9297 32.415 36.6963 33.1856 36.4862 33.6994C36.2294 34.4 35.9026 34.8905 35.389 35.4042C34.8755 35.918 34.3853 36.245 33.685 36.5019C33.1714 36.712 32.3777 36.9456 30.9538 37.0156C29.3898 37.0857 28.9229 37.109 25.0012 37.109C21.0562 37.109 20.5893 37.0857 19.0486 37.0156C17.6013 36.9456 16.831 36.712 16.3174 36.5019C15.6405 36.245 15.1269 35.918 14.6134 35.4042C14.0998 34.8905 13.773 34.4 13.5162 33.6994C13.3061 33.1856 13.0727 32.3916 13.0027 30.9671C12.9326 29.4024 12.9093 28.9353 12.9093 25.0119C12.9093 21.0651 12.9326 20.5981 13.0027 19.0567C13.0727 17.6088 13.3061 16.8381 13.5162 16.3244C13.773 15.6471 14.0998 15.1333 14.6134 14.6196C15.1269 14.1058 15.6171 13.7788 16.3174 13.5219C16.831 13.3118 17.6247 13.0782 19.0486 13.0082C20.5893 12.9147 21.0562 12.9147 25.0012 12.9147ZM25.0012 10.2524C20.9861 10.2524 20.4959 10.2758 18.9319 10.3459C17.3679 10.4159 16.2941 10.6728 15.3604 11.0231C14.3799 11.3968 13.5629 11.9105 12.7459 12.7279C11.9289 13.5453 11.4153 14.3627 11.0418 15.3435C10.6683 16.2777 10.4349 17.3519 10.3649 18.9166C10.2948 20.4813 10.2715 20.9951 10.2715 24.9885C10.2715 29.0054 10.2948 29.4958 10.3649 31.0605C10.4349 32.6252 10.6917 33.6994 11.0418 34.6336C11.4153 35.6144 11.9289 36.4318 12.7459 37.2492C13.5629 38.0665 14.3799 38.5803 15.3604 38.954C16.2941 39.3276 17.3679 39.5612 18.9319 39.6312C20.4959 39.7013 21.0095 39.7247 25.0012 39.7247C29.0163 39.7247 29.5065 39.7013 31.0705 39.6312C32.6345 39.5612 33.7083 39.3043 34.642 38.954C35.6225 38.5803 36.4395 38.0665 37.2565 37.2492C38.0735 36.4318 38.5871 35.6144 38.9606 34.6336C39.3341 33.6994 39.5675 32.6252 39.6375 31.0605C39.7076 29.4958 39.7309 28.982 39.7309 24.9885C39.7309 20.9717 39.7076 20.4813 39.6375 18.9166C39.5675 17.3519 39.3107 16.2777 38.9606 15.3435C38.5871 14.3627 38.0735 13.5453 37.2565 12.7279C36.4395 11.9105 35.6225 11.3968 34.642 11.0231C33.7083 10.6495 32.6345 10.4159 31.0705 10.3459C29.5065 10.2758 28.9929 10.2524 25.0012 10.2524Z" fill="white"/>
<path d="M25.0008 17.4219C20.8223 17.4219 17.4375 20.8081 17.4375 24.9884C17.4375 29.1687 20.8223 32.555 25.0008 32.555C29.1793 32.555 32.5641 29.1687 32.5641 24.9884C32.5641 20.8081 29.1793 17.4219 25.0008 17.4219ZM25.0008 29.916C22.2929 29.916 20.0753 27.7208 20.0753 24.9884C20.0753 22.2794 22.2696 20.0842 25.0008 20.0842C27.7086 20.0842 29.9262 22.2794 29.9262 25.0118C29.9029 27.7208 27.7086 29.916 25.0008 29.916Z" fill="white"/>
<path d="M34.642 17.1186C34.642 18.0995 33.8483 18.8935 32.8679 18.8935C31.8874 18.8935 31.0938 18.0995 31.0938 17.1186C31.0938 16.1378 31.8874 15.3438 32.8679 15.3438C33.8483 15.3671 34.642 16.1378 34.642 17.1186Z" fill="white"/>
</svg>
