<svg width="178" height="169" viewBox="0 0 178 169" fill="none" xmlns="http://www.w3.org/2000/svg">
<rect x="1.5" y="2.15057" width="175" height="165.349" rx="3.5" stroke="#F1C195" stroke-width="3"/>
<rect x="24.0181" y="46.1144" width="132.108" height="97.7952" rx="8.5" stroke="#F1C195" stroke-width="3"/>
<rect x="73.3434" y="16.0903" width="31.3133" height="15.2289" rx="3.5" stroke="#F1C195" stroke-width="3"/>
<circle cx="31.6325" cy="23.7048" r="7.61446" stroke="#F1C195" stroke-width="3"/>
<circle cx="147.44" cy="23.7048" r="7.61446" stroke="#F1C195" stroke-width="3"/>
<path d="M41.2822 102.849C40.8445 100.682 42.5016 98.6566 44.7129 98.6566H48.747C50.9187 98.6566 52.5661 100.614 52.1958 102.753L51.5139 106.693C51.2235 108.371 49.7678 109.596 48.0652 109.596H45.5085C43.8425 109.596 42.4075 108.422 42.0777 106.789L41.2822 102.849Z" stroke="#F1C195" stroke-width="3"/>
<path d="M45.9375 94.1107C46.328 94.5012 46.9612 94.5012 47.3517 94.1107C47.7422 93.7202 47.7422 93.087 47.3517 92.6965L45.9375 94.1107ZM46.6446 84.2891L47.4128 84.9293L46.6446 84.2891ZM44.5373 76.5C44.0849 76.1833 43.4613 76.2933 43.1446 76.7458C42.8279 77.1982 42.938 77.8218 43.3904 78.1385L44.5373 76.5ZM47.3517 92.6965C46.158 91.5028 45.634 90.271 45.634 89.0474C45.634 87.8073 46.1725 86.4177 47.4128 84.9293L45.8764 83.6489C44.4359 85.3775 43.634 87.2047 43.634 89.0474C43.634 90.9067 44.4504 92.6236 45.9375 94.1107L47.3517 92.6965ZM47.4128 84.9293C48.1009 84.1036 48.3968 83.192 48.3817 82.2738C48.3669 81.3799 48.0595 80.5419 47.6491 79.8161C46.8365 78.3787 45.5046 77.1771 44.5373 76.5L43.3904 78.1385C44.2103 78.7124 45.2911 79.709 45.9081 80.8004C46.2127 81.3391 46.3743 81.8481 46.3819 82.3068C46.3891 82.7413 46.2606 83.1879 45.8764 83.6489L47.4128 84.9293Z" fill="#F1C195"/>
<path d="M69.1617 102.849C68.724 100.682 70.3812 98.6566 72.5925 98.6566H76.6266C78.7982 98.6566 80.4456 100.614 80.0753 102.753L79.3934 106.693C79.103 108.371 77.6474 109.596 75.9447 109.596H73.388C71.722 109.596 70.287 108.422 69.9572 106.789L69.1617 102.849Z" stroke="#F1C195" stroke-width="3"/>
<path d="M73.817 94.1107C74.2075 94.5012 74.8407 94.5012 75.2312 94.1107C75.6217 93.7202 75.6217 93.087 75.2312 92.6965L73.817 94.1107ZM74.5241 84.2891L75.2923 84.9293L74.5241 84.2891ZM72.4168 76.5C71.9644 76.1833 71.3409 76.2933 71.0242 76.7458C70.7074 77.1982 70.8175 77.8218 71.2699 78.1385L72.4168 76.5ZM75.2312 92.6965C74.0376 91.5028 73.5136 90.271 73.5136 89.0474C73.5136 87.8073 74.052 86.4177 75.2923 84.9293L73.7559 83.6489C72.3155 85.3775 71.5136 87.2047 71.5136 89.0474C71.5136 90.9067 72.3299 92.6236 73.817 94.1107L75.2312 92.6965ZM75.2923 84.9293C75.9804 84.1036 76.2763 83.192 76.2612 82.2738C76.2464 81.3799 75.939 80.5419 75.5286 79.8161C74.716 78.3787 73.3841 77.1771 72.4168 76.5L71.2699 78.1385C72.0898 78.7124 73.1706 79.709 73.7876 80.8004C74.0922 81.3391 74.2539 81.8481 74.2614 82.3068C74.2686 82.7413 74.1401 83.1879 73.7559 83.6489L75.2923 84.9293Z" fill="#F1C195"/>
<path d="M97.0412 102.849C96.6035 100.682 98.2607 98.6566 100.472 98.6566H104.506C106.678 98.6566 108.325 100.614 107.955 102.753L107.273 106.693C106.983 108.371 105.527 109.596 103.824 109.596H101.268C99.6016 109.596 98.1665 108.422 97.8368 106.789L97.0412 102.849Z" stroke="#F1C195" stroke-width="3"/>
<path d="M101.697 94.1107C102.087 94.5012 102.72 94.5012 103.111 94.1107C103.501 93.7202 103.501 93.087 103.111 92.6965L101.697 94.1107ZM102.404 84.2891L103.172 84.9293L102.404 84.2891ZM100.296 76.5C99.8439 76.1833 99.2204 76.2933 98.9037 76.7458C98.587 77.1982 98.697 77.8218 99.1494 78.1385L100.296 76.5ZM103.111 92.6965C101.917 91.5028 101.393 90.271 101.393 89.0474C101.393 87.8073 101.932 86.4177 103.172 84.9293L101.635 83.6489C100.195 85.3775 99.3931 87.2047 99.3931 89.0474C99.3931 90.9067 100.209 92.6236 101.697 94.1107L103.111 92.6965ZM103.172 84.9293C103.86 84.1036 104.156 83.192 104.141 82.2738C104.126 81.3799 103.818 80.5419 103.408 79.8161C102.595 78.3787 101.264 77.1771 100.296 76.5L99.1494 78.1385C99.9693 78.7124 101.05 79.709 101.667 80.8004C101.972 81.3391 102.133 81.8481 102.141 82.3068C102.148 82.7413 102.02 83.1879 101.635 83.6489L103.172 84.9293Z" fill="#F1C195"/>
<path d="M124.921 102.849C124.483 100.682 126.14 98.6566 128.351 98.6566H132.386C134.557 98.6566 136.205 100.614 135.834 102.753L135.152 106.693C134.862 108.371 133.406 109.596 131.704 109.596H129.147C127.481 109.596 126.046 108.422 125.716 106.789L124.921 102.849Z" stroke="#F1C195" stroke-width="3"/>
<path d="M129.576 94.1107C129.967 94.5012 130.6 94.5012 130.99 94.1107C131.381 93.7202 131.381 93.087 130.99 92.6965L129.576 94.1107ZM130.283 84.2891L131.051 84.9293L130.283 84.2891ZM128.176 76.5C127.723 76.1833 127.1 76.2933 126.783 76.7458C126.466 77.1982 126.577 77.8218 127.029 78.1385L128.176 76.5ZM130.99 92.6965C129.797 91.5028 129.273 90.271 129.273 89.0474C129.273 87.8073 129.811 86.4177 131.051 84.9293L129.515 83.6489C128.074 85.3775 127.273 87.2047 127.273 89.0474C127.273 90.9067 128.089 92.6236 129.576 94.1107L130.99 92.6965ZM131.051 84.9293C131.739 84.1036 132.035 83.192 132.02 82.2738C132.005 81.3799 131.698 80.5419 131.288 79.8161C130.475 78.3787 129.143 77.1771 128.176 76.5L127.029 78.1385C127.849 78.7124 128.93 79.709 129.547 80.8004C129.851 81.3391 130.013 81.8481 130.02 82.3068C130.028 82.7413 129.899 83.1879 129.515 83.6489L131.051 84.9293Z" fill="#F1C195"/>
<line x1="22.5181" y1="110.096" x2="156.554" y2="110.096" stroke="#F1C195" stroke-width="2"/>
</svg>
