<svg width="55" height="55" viewBox="0 0 55 55" fill="none" xmlns="http://www.w3.org/2000/svg">
<path fill-rule="evenodd" clip-rule="evenodd" d="M41.4629 32.7941C36.0854 38.1716 27.3668 38.1716 21.9893 32.7941C16.6118 27.4165 16.6118 18.6979 21.9893 13.3204C27.3668 7.9429 36.0854 7.9429 41.4629 13.3204C46.8404 18.6979 46.8404 27.4166 41.4629 32.7941ZM21.2495 34.8448C27.4423 40.3589 36.9386 40.1468 42.8771 34.2083C49.0356 28.0497 49.0356 18.0647 42.8771 11.9062C36.7186 5.74763 26.7336 5.74763 20.575 11.9062C14.6367 17.8446 14.4244 27.3407 19.9382 33.5335C19.9317 33.5397 19.9252 33.5459 19.9188 33.5523L11.3916 42.0796C11.0293 42.4419 11.0293 43.0292 11.3916 43.3915C11.7539 43.7538 12.3412 43.7538 12.7035 43.3915L21.2307 34.8642C21.2371 34.8578 21.2434 34.8514 21.2495 34.8448Z" fill="#F1C195"/>
</svg>
