<svg id="Layer_1" data-name="Layer 1" xmlns="http://www.w3.org/2000/svg" viewBox="0 0 192 191.79"><defs><style>.cls-1{fill:#f1c195;}</style></defs><title>logo</title><path class="cls-1" d="M95.77,7.79l.58.35a7.17,7.17,0,0,0,3.85,1.41,7.23,7.23,0,0,0,3.86-1.41c.16-.11.38-.24.57-.35l.54.41A7.21,7.21,0,0,0,108.86,10l.45,0a7.77,7.77,0,0,0,3.52-1.06l.6-.3.5.46a7.22,7.22,0,0,0,3.5,2.1,4.81,4.81,0,0,0,.93.09,8.52,8.52,0,0,0,3.12-.75l.63-.23c.15.15.32.35.45.5a7.25,7.25,0,0,0,3.29,2.43,5.22,5.22,0,0,0,1.44.2,9.56,9.56,0,0,0,2.65-.47l.65-.18c.13.17.29.38.4.55a7.26,7.26,0,0,0,3,2.73,5.44,5.44,0,0,0,2,.36,11,11,0,0,0,2.09-.24l.66-.11c.12.18.25.41.35.58a7.24,7.24,0,0,0,2.77,3,5.65,5.65,0,0,0,2.69.59c.49,0,1,0,1.37-.08.24,0,.47,0,.67,0,.1.19.21.42.3.61A7.17,7.17,0,0,0,149.4,24a7.3,7.3,0,0,0,4,.9h.67c.08.2.17.45.24.64A7.15,7.15,0,0,0,156.45,29a7.32,7.32,0,0,0,3.9,1.27l.67.08c.06.21.12.46.17.65A7.18,7.18,0,0,0,163,34.69a7.2,7.2,0,0,0,3.75,1.64l.66.14c0,.21.08.47.11.67A7.23,7.23,0,0,0,169,41a7.11,7.11,0,0,0,3.58,2l.64.21c0,.21,0,.47.05.67a7.21,7.21,0,0,0,1.09,4,7.15,7.15,0,0,0,3.37,2.31l.63.26c0,.22,0,.48,0,.68a7.19,7.19,0,0,0,.71,4,7.17,7.17,0,0,0,3.14,2.62l.59.32c0,.22,0,.47-.08.67a7.21,7.21,0,0,0,.32,4.09,7.22,7.22,0,0,0,2.88,2.9l.56.38c0,.21-.1.46-.15.66a7.19,7.19,0,0,0-.07,4.09A7.17,7.17,0,0,0,188.8,74l.53.43c-.06.21-.14.45-.21.64a7.26,7.26,0,0,0-.46,4.07,7.14,7.14,0,0,0,2.26,3.4c.15.14.33.32.48.48-.08.2-.18.43-.26.61a6,6,0,0,0,1.08,7.61c.13.15.3.35.43.53-.1.19-.22.41-.32.58a6,6,0,0,0,.35,7.68l.39.57c-.12.19-.27.41-.39.58a5.94,5.94,0,0,0-.35,7.67l.32.59-.43.53a5.94,5.94,0,0,0-1.08,7.6l.26.62c-.15.16-.33.34-.48.48a7.14,7.14,0,0,0-2.26,3.4,7.26,7.26,0,0,0,.46,4.07c.06.19.15.43.21.64l-.53.43a6,6,0,0,0-2.51,7.26c.05.2.11.45.15.66l-.57.38a5.95,5.95,0,0,0-3.19,7c0,.2.06.45.08.67l-.6.32a5.94,5.94,0,0,0-3.84,6.65c0,.2,0,.46,0,.68l-.63.26a6,6,0,0,0-4.46,6.26c0,.2,0,.46-.05.67l-.64.21a6,6,0,0,0-5,5.8c0,.2-.07.46-.11.67l-.66.14a7.2,7.2,0,0,0-3.75,1.64,7.07,7.07,0,0,0-1.81,3.67c-.05.19-.11.44-.18.65l-.67.08a6,6,0,0,0-6,4.75c-.06.19-.15.44-.23.64h-.68a7.29,7.29,0,0,0-4,.9,7.2,7.2,0,0,0-2.47,3.26c-.08.18-.19.42-.29.61a5.58,5.58,0,0,1-.67-.05c-.42,0-.89-.07-1.37-.07a5.72,5.72,0,0,0-2.7.59,7.15,7.15,0,0,0-2.76,3l-.35.58-.67-.11a10.77,10.77,0,0,0-2.08-.25,5.21,5.21,0,0,0-2,.37,7.26,7.26,0,0,0-3,2.73l-.4.55-.65-.18a9.56,9.56,0,0,0-2.65-.47,5.22,5.22,0,0,0-1.44.2,7.18,7.18,0,0,0-3.29,2.43l-.45.5-.63-.23a8.32,8.32,0,0,0-3.12-.75,4.81,4.81,0,0,0-.93.09,7.22,7.22,0,0,0-3.5,2.1l-.5.46-.6-.3a7.77,7.77,0,0,0-3.52-1.06,3.39,3.39,0,0,0-.45,0,7.14,7.14,0,0,0-3.68,1.76l-.55.41-.57-.35a5.94,5.94,0,0,0-7.71,0l-.58.35-.54-.41a7.17,7.17,0,0,0-3.69-1.76,3.39,3.39,0,0,0-.45,0,7.69,7.69,0,0,0-3.51,1.06l-.61.3-.5-.46a7.26,7.26,0,0,0-3.5-2.11,5.74,5.74,0,0,0-.93-.08,8.62,8.62,0,0,0-3.12.74c-.18.08-.42.17-.63.24l-.45-.5a7.18,7.18,0,0,0-3.29-2.43,5.22,5.22,0,0,0-1.44-.2,9.56,9.56,0,0,0-2.65.47l-.65.18-.4-.55a7.2,7.2,0,0,0-3-2.73,5.41,5.41,0,0,0-2-.37,10.77,10.77,0,0,0-2.08.25l-.67.11-.35-.58a7.22,7.22,0,0,0-2.76-3,5.72,5.72,0,0,0-2.7-.59c-.49,0-.95,0-1.37.07l-.67.05c-.1-.19-.21-.43-.29-.61A7.27,7.27,0,0,0,51,177.12a7.21,7.21,0,0,0-4-.9h-.67c-.08-.2-.17-.45-.24-.64A7.15,7.15,0,0,0,44,172.09a7.09,7.09,0,0,0-3.89-1.27l-.68-.08c-.06-.21-.12-.46-.17-.66a7.22,7.22,0,0,0-1.81-3.67,7.18,7.18,0,0,0-3.75-1.63l-.66-.14c0-.22-.08-.47-.11-.67a7.2,7.2,0,0,0-1.46-3.83,7.26,7.26,0,0,0-3.58-2l-.64-.2c0-.22,0-.48-.05-.68a7.12,7.12,0,0,0-1.09-3.94A7.15,7.15,0,0,0,22.69,151l-.63-.27c0-.21,0-.47,0-.67a7.24,7.24,0,0,0-.7-4,7.28,7.28,0,0,0-3.14-2.62l-.6-.33c0-.21.05-.47.08-.67a7.18,7.18,0,0,0-.32-4.08,7.2,7.2,0,0,0-2.87-2.9l-.57-.38c0-.21.1-.47.15-.66a7.2,7.2,0,0,0,.07-4.09,7.17,7.17,0,0,0-2.58-3.17l-.53-.43c.06-.21.15-.45.21-.64a7.26,7.26,0,0,0,.47-4.07,7.23,7.23,0,0,0-2.27-3.4c-.15-.14-.33-.32-.48-.48l.26-.62a7.23,7.23,0,0,0,.86-4,7.24,7.24,0,0,0-1.94-3.59l-.43-.53.32-.59a7.17,7.17,0,0,0,1.23-3.91,7.1,7.1,0,0,0-1.58-3.76c-.12-.17-.27-.39-.39-.58l.39-.57A7.1,7.1,0,0,0,9.3,96.22,7.23,7.23,0,0,0,8.07,92.3c-.1-.17-.22-.39-.32-.58.13-.18.3-.38.43-.53a7.23,7.23,0,0,0,1.94-3.6,7.26,7.26,0,0,0-.86-4c-.08-.18-.18-.41-.26-.61.15-.16.33-.34.48-.48a7.23,7.23,0,0,0,2.27-3.4A7.26,7.26,0,0,0,11.28,75c-.06-.19-.14-.44-.21-.64l.53-.44a7.13,7.13,0,0,0,2.58-3.16,7.23,7.23,0,0,0-.07-4.1c0-.19-.1-.44-.15-.65l.57-.38a7.17,7.17,0,0,0,2.87-2.91,7.18,7.18,0,0,0,.32-4.08c0-.2-.06-.46-.08-.67l.6-.32a7.28,7.28,0,0,0,3.14-2.62,7.19,7.19,0,0,0,.7-4c0-.19,0-.45,0-.67l.62-.27a7.26,7.26,0,0,0,3.38-2.3,7.21,7.21,0,0,0,1.08-4c0-.2,0-.46.05-.68l.65-.2a7.27,7.27,0,0,0,3.58-2,7.21,7.21,0,0,0,1.45-3.83c0-.19.07-.45.11-.66l.66-.15a7.21,7.21,0,0,0,3.76-1.63A7.19,7.19,0,0,0,39.21,31c0-.19.12-.45.18-.65l.67-.08A7.26,7.26,0,0,0,44,29a7.33,7.33,0,0,0,2.15-3.49c.06-.19.15-.43.23-.63l.68,0A7.18,7.18,0,0,0,51,24a7.22,7.22,0,0,0,2.47-3.27c.08-.18.19-.41.29-.61l.68.05c.41,0,.88.08,1.37.08a5.83,5.83,0,0,0,2.69-.59,7.21,7.21,0,0,0,2.76-3l.35-.58.67.11a11.78,11.78,0,0,0,2.09.24,5.39,5.39,0,0,0,2-.36,7.2,7.2,0,0,0,3-2.73c.12-.17.27-.38.41-.55l.65.18a9.42,9.42,0,0,0,2.64.47,5.22,5.22,0,0,0,1.44-.2,7.25,7.25,0,0,0,3.29-2.43c.13-.15.31-.35.46-.5l.62.23a8.62,8.62,0,0,0,3.12.75,4.81,4.81,0,0,0,.93-.09,7.18,7.18,0,0,0,3.5-2.1l.5-.46.61.3A7.69,7.69,0,0,0,91.09,10l.45,0A7.17,7.17,0,0,0,95.23,8.2l.54-.41m8.92-3.13c-1.47,0-3,1.89-4.49,1.89s-3-1.89-4.49-1.89h-.08c-1.51.07-2.87,2.17-4.37,2.31h-.17c-1.38,0-2.93-1.48-4.3-1.48l-.25,0C85,5.73,83.88,8,82.4,8.24l-.36,0c-1.27,0-2.77-1.08-4-1.08a1.65,1.65,0,0,0-.44,0c-1.47.35-2.41,2.67-3.85,3.1a2.35,2.35,0,0,1-.6.08c-1.14,0-2.51-.71-3.65-.71a2.18,2.18,0,0,0-.67.1c-1.42.49-2.14,2.89-3.53,3.45a2.41,2.41,0,0,1-.89.15c-1,0-2.12-.38-3.1-.38a2.19,2.19,0,0,0-1,.18c-1.37.63-1.85,3.08-3.19,3.77a2.79,2.79,0,0,1-1.31.26c-.72,0-1.51-.13-2.23-.13a2.74,2.74,0,0,0-1.39.29c-1.3.76-1.55,3.25-2.81,4.06s-3.64,0-4.87.89-1.23,3.38-2.42,4.31S38.47,27,37.34,28s-.91,3.48-2,4.52-3.58.69-4.62,1.78-.57,3.56-1.56,4.69-3.49,1-4.42,2.22S24.5,44.8,23.62,46s-3.37,1.36-4.19,2.62.11,3.6-.65,4.91-3.23,1.66-3.92,3,.44,3.57-.19,4.94-3.05,2-3.61,3.37.78,3.51.29,4.94-2.86,2.25-3.28,3.7,1.12,3.41.76,4.88-2.63,2.52-2.91,4,1.44,3.29,1.23,4.79-2.38,2.75-2.52,4.26,1.75,3.14,1.68,4.65S4.2,99,4.2,100.55s2,3,2.11,4.48-1.82,3.16-1.68,4.65,2.3,2.77,2.52,4.26-1.51,3.31-1.23,4.79,2.56,2.53,2.91,4-1.19,3.44-.76,4.89,2.78,2.28,3.28,3.7-.86,3.54-.3,4.93,3,2,3.62,3.37-.51,3.6.18,4.94,3.18,1.7,3.93,3-.17,3.63.65,4.9,3.32,1.39,4.19,2.62.18,3.63,1.12,4.82,3.43,1.07,4.42,2.21.52,3.6,1.56,4.69,3.52.74,4.61,1.78.86,3.54,2,4.53,3.58.4,4.76,1.34,1.19,3.43,2.42,4.31,3.6.06,4.86.88,1.52,3.31,2.82,4.06a2.7,2.7,0,0,0,1.38.3c.72,0,1.51-.13,2.23-.13a2.94,2.94,0,0,1,1.32.25c1.34.69,1.82,3.15,3.19,3.78a2.31,2.31,0,0,0,1,.18c1,0,2.12-.39,3.09-.39a2.35,2.35,0,0,1,.89.15c1.4.56,2.11,3,3.54,3.46a2.13,2.13,0,0,0,.67.1c1.14,0,2.51-.71,3.65-.71a2,2,0,0,1,.6.08c1.44.42,2.38,2.74,3.85,3.1a2.2,2.2,0,0,0,.44,0c1.27,0,2.77-1.08,4-1.08a2.19,2.19,0,0,1,.36,0c1.48.28,2.64,2.5,4.14,2.72l.25,0c1.37,0,2.92-1.48,4.3-1.48h.17c1.5.14,2.86,2.25,4.37,2.32h.08c1.48,0,3-1.9,4.49-1.9s3,1.9,4.49,1.9h.08c1.51-.07,2.88-2.18,4.37-2.32h.17c1.38,0,2.94,1.48,4.31,1.48l.25,0c1.49-.22,2.65-2.44,4.13-2.72a2.19,2.19,0,0,1,.36,0c1.27,0,2.77,1.08,4,1.08a2.12,2.12,0,0,0,.44,0c1.47-.36,2.41-2.68,3.85-3.1a2,2,0,0,1,.6-.08c1.14,0,2.51.71,3.65.71a2.13,2.13,0,0,0,.67-.1c1.43-.5,2.14-2.9,3.54-3.46a2.56,2.56,0,0,1,.89-.15c1,0,2.11.39,3.09.39a2.31,2.31,0,0,0,1-.18c1.37-.63,1.85-3.09,3.19-3.78a2.94,2.94,0,0,1,1.32-.25c.72,0,1.51.13,2.22.13a2.82,2.82,0,0,0,1.39-.29c1.3-.76,1.55-3.25,2.81-4.07s3.64,0,4.87-.88,1.23-3.38,2.42-4.31,3.62-.35,4.76-1.34.91-3.48,2-4.52,3.57-.7,4.61-1.79.57-3.55,1.56-4.69,3.49-1,4.42-2.21.24-3.59,1.12-4.82,3.37-1.35,4.19-2.62-.1-3.59.65-4.9,3.23-1.66,3.93-3-.45-3.56.18-4.94,3.06-2,3.62-3.37-.79-3.5-.3-4.93,2.86-2.25,3.29-3.7-1.12-3.42-.77-4.89,2.63-2.51,2.91-4-1.44-3.3-1.22-4.79,2.37-2.75,2.51-4.26S194,106.54,194.1,105s2.1-3,2.1-4.48-2-3-2.1-4.47,1.81-3.16,1.67-4.65-2.3-2.77-2.51-4.26,1.51-3.31,1.22-4.79-2.55-2.54-2.91-4,1.19-3.44.77-4.88-2.79-2.28-3.28-3.7.85-3.54.29-4.93-3-2-3.62-3.37.51-3.61-.18-4.94-3.17-1.71-3.93-3,.17-3.64-.65-4.9-3.32-1.4-4.19-2.62-.18-3.64-1.11-4.82-3.44-1.07-4.43-2.21-.52-3.6-1.56-4.69-3.52-.75-4.61-1.79-.86-3.53-2-4.52-3.57-.41-4.76-1.34-1.19-3.43-2.42-4.31-3.59-.07-4.86-.88-1.51-3.31-2.82-4.07a2.8,2.8,0,0,0-1.38-.29c-.72,0-1.51.13-2.23.13a3,3,0,0,1-1.32-.25c-1.33-.7-1.81-3.15-3.19-3.78a2.31,2.31,0,0,0-1-.18c-1,0-2.11.38-3.09.38a2.35,2.35,0,0,1-.89-.15c-1.4-.56-2.11-3-3.54-3.45a2.13,2.13,0,0,0-.67-.1c-1.14,0-2.51.71-3.65.71a2.35,2.35,0,0,1-.6-.08c-1.44-.42-2.38-2.75-3.85-3.1a1.61,1.61,0,0,0-.44,0c-1.26,0-2.77,1.08-4,1.08l-.36,0c-1.48-.29-2.64-2.51-4.13-2.72l-.25,0c-1.37,0-2.93,1.48-4.31,1.48h-.17c-1.49-.14-2.86-2.24-4.37-2.31Z" transform="translate(-4.2 -4.66)"/><path class="cls-1" d="M70,87.52a8.38,8.38,0,0,1-1.24.72,13.1,13.1,0,0,1-1.87.72,17.55,17.55,0,0,1-2.39.56,16.64,16.64,0,0,1-2.8.22A14,14,0,0,1,56,88.65a12.64,12.64,0,0,1-6.91-7.25,14.41,14.41,0,0,1-.92-5.18,14.09,14.09,0,0,1,1.09-5.6,13.68,13.68,0,0,1,3-4.41,13.86,13.86,0,0,1,4.43-2.89,14.13,14.13,0,0,1,5.39-1,16.45,16.45,0,0,1,2.19.15,16.13,16.13,0,0,1,2.09.4,12.11,12.11,0,0,1,1.74.61,4.65,4.65,0,0,1,1.17.73c-.2.29-.35.54-.47.74s-.22.4-.35.61l-.41.72c-.14.27-.34.63-.59,1.08a4.42,4.42,0,0,0-1.13-.56A11.12,11.12,0,0,0,65,66.4a13.71,13.71,0,0,0-1.43-.22,12.9,12.9,0,0,0-1.31-.08A10,10,0,0,0,53,72.18a9.46,9.46,0,0,0-.76,3.7,9.32,9.32,0,0,0,.73,3.64,10.42,10.42,0,0,0,2,3.11,9.52,9.52,0,0,0,7,3,11.61,11.61,0,0,0,2.22-.22,18.14,18.14,0,0,0,2-.52,10.48,10.48,0,0,0,1.44-.6,2.43,2.43,0,0,0,.69-.44Z" transform="translate(-4.2 -4.66)"/><path class="cls-1" d="M90.29,89.44c-.12-.27-.3-.66-.52-1.18L89,86.46l-.92-2.22c-.34-.8-.68-1.64-1-2.5H77.58l-3.18,7.7h-4l12-28.12c.15.35.42,1,.8,1.89s.84,2,1.37,3.28,1.12,2.68,1.78,4.23,1.32,3.1,2,4.68,1.34,3.14,2,4.67l1.8,4.22c.54,1.29,1,2.38,1.39,3.28s.64,1.53.79,1.87ZM79,78.33H85.7c-.35-.82-.68-1.6-1-2.35s-.59-1.45-.85-2.08l-.68-1.65q-.3-.7-.45-1.11a5.34,5.34,0,0,1-.16-.52,8.13,8.13,0,0,1-.21-.81,6.21,6.21,0,0,1-.22.81,4.47,4.47,0,0,1-.19.52Z" transform="translate(-4.2 -4.66)"/><path class="cls-1" d="M97.63,89.44V62.58h4.07v23H115v3.85Z" transform="translate(-4.2 -4.66)"/><path class="cls-1" d="M118.78,62.58h4V89.44h-4Z" transform="translate(-4.2 -4.66)"/><path class="cls-1" d="M129.27,68.21l-1.67-.92a4.26,4.26,0,0,0,1.17-1.87,5,5,0,0,0,.09-2.43l2.07-.26a6.1,6.1,0,0,1-.14,3A6,6,0,0,1,129.27,68.21Z" transform="translate(-4.2 -4.66)"/><path class="cls-1" d="M151.42,64.07,150,67.36a25.71,25.71,0,0,0-3-.89,13.4,13.4,0,0,0-2.88-.33,6.45,6.45,0,0,0-3.72,1A2.91,2.91,0,0,0,139,69.55a2.43,2.43,0,0,0,1,2,11.55,11.55,0,0,0,2.49,1.37c1,.41,2.06.81,3.22,1.22a14.82,14.82,0,0,1,3.22,1.58,8.66,8.66,0,0,1,2.48,2.42,6.52,6.52,0,0,1,1,3.76,7.7,7.7,0,0,1-.64,3.21,6.84,6.84,0,0,1-1.93,2.46,9.1,9.1,0,0,1-3.19,1.6,16,16,0,0,1-4.46.55,17.64,17.64,0,0,1-2.95-.22,15.81,15.81,0,0,1-2.37-.58,12,12,0,0,1-1.85-.76c-.53-.27-1-.51-1.35-.74l1.78-3.52a14.12,14.12,0,0,0,3.29,1.37,12,12,0,0,0,3.3.52,11.54,11.54,0,0,0,1.83-.18,8.53,8.53,0,0,0,2.1-.65,5.49,5.49,0,0,0,1.72-1.24,2.77,2.77,0,0,0,.72-2,3,3,0,0,0-.57-1.84,5.37,5.37,0,0,0-1.52-1.33,13,13,0,0,0-2.15-1l-2.46-1c-.84-.34-1.66-.69-2.47-1.06a9.55,9.55,0,0,1-2.15-1.35,6.57,6.57,0,0,1-1.52-1.85,5.29,5.29,0,0,1-.57-2.54,7,7,0,0,1,.56-2.71,6.76,6.76,0,0,1,1.66-2.37A8.36,8.36,0,0,1,140,63.07a10.73,10.73,0,0,1,3.84-.63,15,15,0,0,1,2.61.22c.85.15,1.62.31,2.32.5a18.23,18.23,0,0,1,1.76.54A8.59,8.59,0,0,1,151.42,64.07Z" transform="translate(-4.2 -4.66)"/><path class="cls-1" d="M42.52,127.52a8.05,8.05,0,0,1-1.25.72,12.65,12.65,0,0,1-1.87.72,18.76,18.76,0,0,1-2.39.56,16.52,16.52,0,0,1-2.79.22,13.92,13.92,0,0,1-5.65-1.09,12.8,12.8,0,0,1-4.25-3,12.6,12.6,0,0,1-2.66-4.3,14.42,14.42,0,0,1-.93-5.18,14.09,14.09,0,0,1,1.09-5.6,13.49,13.49,0,0,1,7.41-7.3,14.17,14.17,0,0,1,5.39-1,16.34,16.34,0,0,1,2.19.15,15.81,15.81,0,0,1,2.09.4,11.84,11.84,0,0,1,1.75.61,4.75,4.75,0,0,1,1.16.73,8.66,8.66,0,0,0-.46.74l-.35.61c-.13.21-.26.45-.41.72s-.35.63-.59,1.08a4.42,4.42,0,0,0-1.13-.56,11.81,11.81,0,0,0-1.36-.37,13.52,13.52,0,0,0-1.42-.22,12.91,12.91,0,0,0-1.32-.08,9.89,9.89,0,0,0-4,.8,10,10,0,0,0-3.17,2.15,9.82,9.82,0,0,0-2.09,3.13,9.25,9.25,0,0,0-.76,3.7,9.4,9.4,0,0,0,.72,3.63,10.34,10.34,0,0,0,2,3.12,9.51,9.51,0,0,0,3.08,2.18,9.33,9.33,0,0,0,3.94.82,11.63,11.63,0,0,0,2.23-.22,18.58,18.58,0,0,0,1.94-.52,11.23,11.23,0,0,0,1.45-.6,2.18,2.18,0,0,0,.68-.44Z" transform="translate(-4.2 -4.66)"/><path class="cls-1" d="M43.59,116a13.36,13.36,0,0,1,1.07-5.28,14,14,0,0,1,7.3-7.37,13.58,13.58,0,0,1,10.66,0,14.07,14.07,0,0,1,4.37,3,14.45,14.45,0,0,1,3,4.39,13.48,13.48,0,0,1,0,10.62,14.39,14.39,0,0,1-3,4.35,14,14,0,0,1-4.37,2.95,13.81,13.81,0,0,1-10.66,0,14,14,0,0,1-7.3-7.3A13.44,13.44,0,0,1,43.59,116Zm4,0a9.87,9.87,0,0,0,2.85,7,10.3,10.3,0,0,0,3.11,2.11,9.33,9.33,0,0,0,3.78.77,9.13,9.13,0,0,0,3.76-.77A10,10,0,0,0,64.21,123a9.92,9.92,0,0,0,2.07-3.14,10.13,10.13,0,0,0,0-7.7,9.6,9.6,0,0,0-2.09-3.13A10,10,0,0,0,61.1,107a9.5,9.5,0,0,0-7.54,0,9.69,9.69,0,0,0-3.1,2.11,10,10,0,0,0-2.83,7Z" transform="translate(-4.2 -4.66)"/><path class="cls-1" d="M73.86,116a13.36,13.36,0,0,1,1.07-5.28,14,14,0,0,1,7.3-7.37,13.55,13.55,0,0,1,10.65,0,14,14,0,0,1,4.38,3,14.45,14.45,0,0,1,3,4.39,13.48,13.48,0,0,1,0,10.62,14.39,14.39,0,0,1-3,4.35,13.91,13.91,0,0,1-4.38,2.95,13.79,13.79,0,0,1-10.65,0,14,14,0,0,1-7.3-7.3A13.44,13.44,0,0,1,73.86,116Zm4,0a9.87,9.87,0,0,0,2.85,7,10.3,10.3,0,0,0,3.11,2.11,9.33,9.33,0,0,0,3.78.77,9.13,9.13,0,0,0,3.76-.77A10,10,0,0,0,94.48,123a9.92,9.92,0,0,0,2.07-3.14,10.13,10.13,0,0,0,0-7.7,9.6,9.6,0,0,0-2.09-3.13A10,10,0,0,0,91.37,107a9.5,9.5,0,0,0-7.54,0,9.69,9.69,0,0,0-3.1,2.11,10,10,0,0,0-2.83,7Z" transform="translate(-4.2 -4.66)"/><path class="cls-1" d="M122,129.44l-2.48-3.18c-.79-1-1.57-2-2.34-3l-2.31-3.08c-.78-1-1.6-2.11-2.47-3.22-.32.35-.63.66-.92,1s-.62.57-1,.87c0,1.9,0,3.68,0,5.35s0,3.45,0,5.35H106V102.58h4.48v10a4.51,4.51,0,0,1,0,.65,3.49,3.49,0,0,0-.06.65,4.63,4.63,0,0,1,.37-.46,3.61,3.61,0,0,0,.37-.5c1.75-1.66,3.45-3.38,5.08-5.17s3.32-3.53,5.07-5.21h5.15q-2.78,2.9-5.5,5.82c-1.81,1.95-3.65,3.89-5.5,5.82q1.56,2,3,3.87l2.82,3.72,2.79,3.74q1.41,1.89,2.93,3.89Z" transform="translate(-4.2 -4.66)"/><path class="cls-1" d="M130,102.58h4v26.86h-4Z" transform="translate(-4.2 -4.66)"/><path class="cls-1" d="M140.62,129.44V102.58h17.64v3.67H144.7v7.86h12.08v3.74H144.7v7.85h14.08v3.74Z" transform="translate(-4.2 -4.66)"/><path class="cls-1" d="M178.86,104.07l-1.45,3.29a25.16,25.16,0,0,0-3-.89,13.38,13.38,0,0,0-2.87-.33,6.41,6.41,0,0,0-3.72,1,2.89,2.89,0,0,0-1.39,2.45,2.41,2.41,0,0,0,1,2,11.46,11.46,0,0,0,2.48,1.37c1,.41,2.06.81,3.22,1.22a14.9,14.9,0,0,1,3.23,1.58,8.79,8.79,0,0,1,2.48,2.42,6.52,6.52,0,0,1,1,3.76,7.7,7.7,0,0,1-.65,3.21,6.7,6.7,0,0,1-1.92,2.46,9.09,9.09,0,0,1-3.19,1.59,15.68,15.68,0,0,1-4.47.56,17.6,17.6,0,0,1-2.94-.22,15.23,15.23,0,0,1-2.37-.58,12.16,12.16,0,0,1-1.86-.76c-.53-.27-1-.51-1.35-.74l1.78-3.52a14.39,14.39,0,0,0,3.3,1.37,12,12,0,0,0,3.3.52,11.64,11.64,0,0,0,1.83-.18,8.32,8.32,0,0,0,2.09-.65,5.53,5.53,0,0,0,1.73-1.24,2.77,2.77,0,0,0,.72-2,2.93,2.93,0,0,0-.58-1.84,5.33,5.33,0,0,0-1.51-1.33,13,13,0,0,0-2.15-1l-2.47-1c-.84-.34-1.66-.69-2.46-1.06a9.55,9.55,0,0,1-2.15-1.35,6.4,6.4,0,0,1-1.52-1.85,5.29,5.29,0,0,1-.57-2.54,7,7,0,0,1,.55-2.71,6.79,6.79,0,0,1,1.67-2.37,8.36,8.36,0,0,1,2.76-1.66,10.72,10.72,0,0,1,3.83-.63,15.19,15.19,0,0,1,2.62.22c.85.15,1.62.31,2.31.5a18.23,18.23,0,0,1,1.76.54A9.05,9.05,0,0,1,178.86,104.07Z" transform="translate(-4.2 -4.66)"/></svg>